<svg width="261" height="261" viewBox="0 0 261 261" fill="none" xmlns="http://www.w3.org/2000/svg">
<g filter="url(#filter0_d_307_1359)">
<rect x="40.724" y="36.8418" width="180" height="180" rx="32" fill="#1D1F23"/>
<rect x="41.224" y="37.3418" width="179" height="179" rx="31.5" stroke="black"/>
</g>
<g clip-path="url(#clip0_307_1359)">
<path d="M131 76.436C103.431 76.436 81 98.8669 81 126.436C81 154.008 103.431 176.438 131 176.438C158.569 176.438 181 154.008 181 126.436C181 98.8669 158.569 76.436 131 76.436Z" fill="white"/>
<path d="M129.171 127.336C128.722 128.309 128.226 129.403 127.713 130.567C125.898 134.678 123.889 139.68 123.155 142.885C122.891 144.026 122.728 145.441 122.731 147.009C122.731 147.629 122.764 148.281 122.817 148.945C125.382 149.888 128.153 150.406 131.046 150.411C133.68 150.406 136.211 149.971 138.579 149.184C138.023 148.675 137.491 148.132 137.008 147.521C133.797 143.426 132.005 137.426 129.171 127.336Z" fill="#91DC47"/>
<path d="M117.316 106.993C111.184 111.315 107.171 118.443 107.156 126.521C107.171 134.478 111.063 141.514 117.041 145.854C118.508 139.746 122.184 134.153 127.696 122.942C127.368 122.043 126.995 121.058 126.578 120.024C125.051 116.194 122.847 111.745 120.88 109.731C119.877 108.679 118.661 107.769 117.316 106.993Z" fill="#91DC47"/>
<path d="M151.857 153.923C148.693 153.527 146.082 153.048 143.797 152.242C139.955 154.15 135.628 155.228 131.046 155.228C115.193 155.228 102.342 142.379 102.34 126.521C102.34 117.917 106.131 110.203 112.128 104.943C110.524 104.555 108.851 104.329 107.143 104.332C98.7199 104.411 89.8289 109.073 86.1274 121.661C85.7813 123.494 85.8637 124.879 85.8637 126.522C85.8637 151.477 106.095 171.708 131.048 171.708C146.33 171.708 159.83 164.114 168.005 152.501C163.583 153.603 159.331 154.13 155.689 154.141C154.325 154.141 153.043 154.068 151.857 153.923Z" fill="#63B132"/>
<path d="M143.366 145.168C143.645 145.306 144.278 145.532 145.158 145.781C151.078 141.435 154.926 134.434 154.941 126.521H154.939C154.917 113.329 144.241 102.655 131.046 102.629C128.424 102.634 125.904 103.067 123.545 103.849C128.396 109.378 130.729 117.281 132.986 125.925C132.987 125.929 132.989 125.932 132.99 125.935C132.994 125.942 133.712 128.335 134.944 131.511C136.167 134.682 137.91 138.608 139.811 141.468C141.059 143.386 142.432 144.763 143.366 145.168Z" fill="#90B4FE"/>
<path d="M131.048 81.3348C115.913 81.3348 102.526 88.7852 94.3258 100.209C98.5934 97.5364 102.951 96.5723 106.754 96.6067C112.006 96.6219 116.135 98.2505 118.116 99.3645C118.595 99.6403 119.049 99.9372 119.494 100.242C123.029 98.6852 126.936 97.8145 131.047 97.8145C146.902 97.8165 159.755 110.666 159.757 126.521H159.755C159.755 134.515 156.485 141.742 151.214 146.947C152.508 147.092 153.888 147.182 155.297 147.175C160.301 147.177 165.71 146.073 169.765 142.663C172.409 140.435 174.625 137.174 175.853 132.284C176.093 130.395 176.232 128.475 176.232 126.522C176.232 101.568 156.003 81.3348 131.048 81.3348Z" fill="#5881D8"/>
</g>
<defs>
<filter id="filter0_d_307_1359" x="0.723999" y="0.841797" width="260" height="260" filterUnits="userSpaceOnUse" color-interpolation-filters="sRGB">
<feFlood flood-opacity="0" result="BackgroundImageFix"/>
<feColorMatrix in="SourceAlpha" type="matrix" values="0 0 0 0 0 0 0 0 0 0 0 0 0 0 0 0 0 0 127 0" result="hardAlpha"/>
<feOffset dy="4"/>
<feGaussianBlur stdDeviation="20"/>
<feComposite in2="hardAlpha" operator="out"/>
<feColorMatrix type="matrix" values="0 0 0 0 0.0367917 0 0 0 0 0.0348958 0 0 0 0 0.0484375 0 0 0 0.1 0"/>
<feBlend mode="normal" in2="BackgroundImageFix" result="effect1_dropShadow_307_1359"/>
<feBlend mode="normal" in="SourceGraphic" in2="effect1_dropShadow_307_1359" result="shape"/>
</filter>
<clipPath id="clip0_307_1359">
<rect width="100" height="100" fill="white" transform="translate(81 76.436)"/>
</clipPath>
</defs>
</svg>
