<svg width="261" height="261" viewBox="0 0 261 261" fill="none" xmlns="http://www.w3.org/2000/svg">
<g filter="url(#filter0_d_307_1364)">
<rect x="40.724" y="36.8418" width="180" height="180" rx="32" fill="#1D1F23"/>
<rect x="41.224" y="37.3418" width="179" height="179" rx="31.5" stroke="black"/>
</g>
<path d="M155.171 131.84C164.936 131.84 172.852 124.583 172.852 115.632C172.852 106.681 164.936 99.4243 155.171 99.4243C145.406 99.4243 137.49 106.681 137.49 115.632C137.49 124.583 145.406 131.84 155.171 131.84Z" fill="#B03931"/>
<path d="M175.319 103.029C178.456 103.029 181 100.697 181 97.8211C181 94.945 178.456 92.6134 175.319 92.6134C172.181 92.6134 169.638 94.945 169.638 97.8211C169.638 100.697 172.181 103.029 175.319 103.029Z" fill="#B03931"/>
<path d="M83.2 94.3916C81.9689 94.5438 81.0041 95.5265 81 96.7158L81.0777 157.442C81.0777 158.362 81.3265 160.259 83.9136 160.259L107.17 160.166C113.818 160.154 118.27 160.04 120.922 159.705C120.938 159.705 120.97 159.705 120.985 159.705C123.523 159.352 126.211 158.703 129.133 157.754C134.214 156.165 138.72 153.818 142.594 150.683C146.387 147.646 149.326 144.051 151.392 140.006C153.457 135.961 154.499 131.684 154.491 127.251C154.48 121.079 152.613 115.301 148.867 110.102C145.121 104.902 140.008 100.921 133.715 98.284C127.318 95.5718 118.976 94.336 108.628 94.3545L83.5147 94.3912C83.4067 94.3918 83.3043 94.3787 83.2 94.3916ZM96.7167 106.887L107.543 106.872C112.602 106.863 116.201 107.016 118.243 107.297C120.313 107.581 122.579 108.181 124.98 109.108C127.359 110.015 129.433 111.125 131.215 112.507C136.119 116.319 138.43 120.831 138.441 126.804C138.451 132.921 136.218 137.685 131.442 141.68C129.972 142.893 128.339 143.921 126.536 144.772C124.833 145.566 122.61 146.249 119.804 146.839C117.158 147.368 113.14 147.669 107.909 147.679L96.769 147.695L96.7167 106.887Z" fill="#B03931"/>
<defs>
<filter id="filter0_d_307_1364" x="0.723999" y="0.841797" width="260" height="260" filterUnits="userSpaceOnUse" color-interpolation-filters="sRGB">
<feFlood flood-opacity="0" result="BackgroundImageFix"/>
<feColorMatrix in="SourceAlpha" type="matrix" values="0 0 0 0 0 0 0 0 0 0 0 0 0 0 0 0 0 0 127 0" result="hardAlpha"/>
<feOffset dy="4"/>
<feGaussianBlur stdDeviation="20"/>
<feComposite in2="hardAlpha" operator="out"/>
<feColorMatrix type="matrix" values="0 0 0 0 0.0367917 0 0 0 0 0.0348958 0 0 0 0 0.0484375 0 0 0 0.1 0"/>
<feBlend mode="normal" in2="BackgroundImageFix" result="effect1_dropShadow_307_1364"/>
<feBlend mode="normal" in="SourceGraphic" in2="effect1_dropShadow_307_1364" result="shape"/>
</filter>
</defs>
</svg>
