<svg width="261" height="261" viewBox="0 0 261 261" fill="none" xmlns="http://www.w3.org/2000/svg">
<g filter="url(#filter0_d_301_8836)">
<rect x="40.5524" y="36.188" width="180" height="180" rx="32" fill="#1D1F23"/>
<rect x="41.0524" y="36.688" width="179" height="179" rx="31.5" stroke="black"/>
</g>
<g clip-path="url(#clip0_301_8836)">
<path d="M131 76C158.614 76 181 98.3859 181 126C181 153.614 158.614 176 131 176C103.386 176 81 153.614 81 126C81 98.3859 103.386 76 131 76Z" fill="#E05C43"/>
<path fill-rule="evenodd" clip-rule="evenodd" d="M131.988 94.85C138.431 94.7226 142.983 96.4695 146.9 102.03C155.442 123.209 124.91 134.139 123.686 134.569L123.648 134.581C123.648 134.581 122.726 140.334 131.482 140.112C142.258 140.112 153.587 131.76 157.896 128.23C158.397 127.818 159.035 127.611 159.682 127.649C160.329 127.687 160.938 127.969 161.387 128.437L164.613 131.788C165.067 132.256 165.326 132.878 165.338 133.529C165.35 134.181 165.115 134.812 164.68 135.297C161.875 138.42 155.294 144.83 145.386 148.972C145.386 148.972 128.855 156.627 117.714 149.378C111.071 145.058 109.244 139.885 108.501 134.505C108.505 134.505 100.435 134.095 95.2532 132.072C90.0696 130.047 95.2914 123.938 95.2914 123.938C95.2914 123.938 96.8852 121.412 99.9164 123.938C102.95 126.46 108.612 125.323 108.612 125.323C109.116 121.339 109.956 116.082 112.427 110.534C117.609 98.9047 125.544 94.975 131.988 94.85ZM135.78 106.502C132.366 103.213 122.511 109.785 122.131 124.823C122.131 124.823 125.04 125.709 131.482 121.284C137.927 116.861 139.193 109.785 135.78 106.502Z" fill="white"/>
</g>
<defs>
<filter id="filter0_d_301_8836" x="0.552368" y="0.187988" width="260" height="260" filterUnits="userSpaceOnUse" color-interpolation-filters="sRGB">
<feFlood flood-opacity="0" result="BackgroundImageFix"/>
<feColorMatrix in="SourceAlpha" type="matrix" values="0 0 0 0 0 0 0 0 0 0 0 0 0 0 0 0 0 0 127 0" result="hardAlpha"/>
<feOffset dy="4"/>
<feGaussianBlur stdDeviation="20"/>
<feComposite in2="hardAlpha" operator="out"/>
<feColorMatrix type="matrix" values="0 0 0 0 0.0367917 0 0 0 0 0.0348958 0 0 0 0 0.0484375 0 0 0 0.1 0"/>
<feBlend mode="normal" in2="BackgroundImageFix" result="effect1_dropShadow_301_8836"/>
<feBlend mode="normal" in="SourceGraphic" in2="effect1_dropShadow_301_8836" result="shape"/>
</filter>
<clipPath id="clip0_301_8836">
<rect width="100" height="100" fill="white" transform="translate(81 76)"/>
</clipPath>
</defs>
</svg>
