<svg width="261" height="260" viewBox="0 0 261 260" fill="none" xmlns="http://www.w3.org/2000/svg">
<g filter="url(#filter0_d_301_8815)">
<rect x="40.724" y="36" width="180" height="180" rx="32" fill="#1D1F23"/>
<rect x="41.224" y="36.5" width="179" height="179" rx="31.5" stroke="black"/>
</g>
<path d="M122.765 116.893C134.345 110.46 150.204 101.648 150.204 76H131.001C131.001 90.35 124.014 94.2311 113.439 100.106C101.859 106.542 86 115.351 86 141.001H105.204C105.204 126.65 112.19 122.769 122.765 116.893Z" fill="#FF3C00"/>
<path d="M156.003 111C156.003 125.35 149.017 129.232 138.442 135.106C126.865 141.539 111.003 150.35 111.003 176H130.206C130.206 161.649 137.192 157.768 147.767 151.893C159.347 145.46 175.206 136.65 175.206 111H156.003Z" fill="#FF3C00"/>
<defs>
<filter id="filter0_d_301_8815" x="0.723999" y="0" width="260" height="260" filterUnits="userSpaceOnUse" color-interpolation-filters="sRGB">
<feFlood flood-opacity="0" result="BackgroundImageFix"/>
<feColorMatrix in="SourceAlpha" type="matrix" values="0 0 0 0 0 0 0 0 0 0 0 0 0 0 0 0 0 0 127 0" result="hardAlpha"/>
<feOffset dy="4"/>
<feGaussianBlur stdDeviation="20"/>
<feComposite in2="hardAlpha" operator="out"/>
<feColorMatrix type="matrix" values="0 0 0 0 0.0367917 0 0 0 0 0.0348958 0 0 0 0 0.0484375 0 0 0 0.1 0"/>
<feBlend mode="normal" in2="BackgroundImageFix" result="effect1_dropShadow_301_8815"/>
<feBlend mode="normal" in="SourceGraphic" in2="effect1_dropShadow_301_8815" result="shape"/>
</filter>
</defs>
</svg>
