<svg width="261" height="261" viewBox="0 0 261 261" fill="none" xmlns="http://www.w3.org/2000/svg">
<g filter="url(#filter0_d_301_8880)">
<rect x="40.9327" y="36.4058" width="180" height="180" rx="32" fill="#1D1F23"/>
<rect x="41.4327" y="36.9058" width="179" height="179" rx="31.5" stroke="black"/>
</g>
<path d="M180.866 128.185C180.866 120.279 178.822 112.853 175.238 106.399C190.515 71.8231 158.868 76.8872 157.106 77.2321C150.401 78.5442 144.198 80.6505 138.477 83.3208C137.633 83.2731 136.784 83.247 135.928 83.247C114.575 83.247 96.7007 98.1407 92.1261 118.107C103.381 105.481 111.257 100.386 115.974 98.3478C115.226 99.0168 114.488 99.6963 113.759 100.386C113.518 100.614 113.285 100.845 113.047 101.074C112.569 101.531 112.096 101.993 111.626 102.459C111.349 102.735 111.079 103.013 110.806 103.292C110.393 103.71 109.984 104.131 109.577 104.556C109.291 104.856 109.011 105.158 108.73 105.459C108.354 105.86 107.981 106.264 107.61 106.671C107.325 106.986 107.044 107.301 106.764 107.617C106.131 108.329 105.506 109.048 104.89 109.774C104.569 110.153 104.25 110.534 103.933 110.917C103.654 111.254 103.376 111.591 103.103 111.928C102.81 112.291 102.519 112.654 102.23 113.02C101.951 113.372 101.671 113.724 101.398 114.076C101.138 114.41 100.886 114.744 100.632 115.078C100.344 115.456 100.055 115.833 99.7757 116.208C99.5757 116.477 99.3839 116.743 99.1874 117.011C97.4941 119.321 95.8723 121.682 94.3245 124.092C94.3206 124.098 94.3167 124.103 94.314 124.109C93.9353 124.7 93.5609 125.293 93.1909 125.889C93.1714 125.921 93.1511 125.953 93.1315 125.985C92.7733 126.563 92.4193 127.144 92.0694 127.727L92.0327 127.787C91.1555 129.248 90.3042 130.725 89.4792 132.216C85.4319 139.551 83.4616 144.675 83.3764 144.979C70.596 190.671 110.484 171.376 116.05 168.495C122.044 171.456 128.791 173.122 135.928 173.122C155.468 173.122 172.093 160.65 178.281 143.232H154.669C151.175 149.135 144.449 153.133 136.722 153.133C125.4 153.133 116.222 144.554 116.222 133.972H180.496C180.739 132.077 180.866 130.146 180.866 128.185ZM172.471 83.9634C176.341 86.5755 179.445 90.677 174.114 104.491C169.002 96.2688 161.311 89.8192 152.169 86.2743C156.327 84.2661 166.626 80.018 172.471 83.9634ZM90.2327 168.403C87.0804 165.171 86.5233 157.298 93.4788 142.952C96.9886 153.044 103.993 161.5 113.046 166.867C108.544 169.345 96.5905 174.925 90.2327 168.403ZM116.123 121.684C116.482 111.399 125.433 103.165 136.43 103.165C147.428 103.165 156.379 111.399 156.738 121.684H116.123Z" fill="#1EBBEE"/>
<defs>
<filter id="filter0_d_301_8880" x="0.932739" y="0.405762" width="260" height="260" filterUnits="userSpaceOnUse" color-interpolation-filters="sRGB">
<feFlood flood-opacity="0" result="BackgroundImageFix"/>
<feColorMatrix in="SourceAlpha" type="matrix" values="0 0 0 0 0 0 0 0 0 0 0 0 0 0 0 0 0 0 127 0" result="hardAlpha"/>
<feOffset dy="4"/>
<feGaussianBlur stdDeviation="20"/>
<feComposite in2="hardAlpha" operator="out"/>
<feColorMatrix type="matrix" values="0 0 0 0 0.0367917 0 0 0 0 0.0348958 0 0 0 0 0.0484375 0 0 0 0.1 0"/>
<feBlend mode="normal" in2="BackgroundImageFix" result="effect1_dropShadow_301_8880"/>
<feBlend mode="normal" in="SourceGraphic" in2="effect1_dropShadow_301_8880" result="shape"/>
</filter>
</defs>
</svg>
