<svg width="261" height="261" viewBox="0 0 261 261" fill="none" xmlns="http://www.w3.org/2000/svg">
<g filter="url(#filter0_d_307_1340)">
<rect x="40.724" y="36.8418" width="180" height="180" rx="32" fill="#1D1F23"/>
<rect x="41.224" y="37.3418" width="179" height="179" rx="31.5" stroke="black"/>
</g>
<g opacity="0.783251">
<g filter="url(#filter1_f_307_1340)">
<path d="M122.181 80.6474L85.4719 118.247C71.5724 132.146 94.4709 130.988 102.757 136.245C106.588 138.74 90.4614 141.947 93.7581 145.244C96.9656 148.541 113.093 151.57 116.3 154.778C119.508 158.074 109.796 161.549 113.003 164.846C116.122 168.142 123.606 165.024 124.943 172.508C125.923 178.032 138.664 175.27 144.366 170.548C147.93 167.519 138.218 167.519 141.426 164.222C149.445 156.114 156.573 160.569 159.513 153.085C161.117 149.075 147.396 146.224 151.049 143.64C159.78 137.492 191.856 134.374 177.065 119.584L139.02 80.6474C134.298 76.1924 126.546 76.1924 122.181 80.6474ZM164.324 153.085C164.324 154.956 178.847 156.025 178.046 152.639C176.887 146.937 165.928 147.382 164.324 153.085ZM102.401 162.975C105.697 165.826 110.687 162.351 112.291 158.342C109.083 154.154 97.2329 158.609 102.401 162.975ZM162.542 157.005C158.444 160.747 163.255 164.668 167.265 162.084C168.334 161.371 167.176 157.896 162.542 157.005Z" fill="black"/>
</g>
<g opacity="0.576355" filter="url(#filter2_f_307_1340)">
<path d="M122.181 81.5175L85.4719 119.117C71.5724 133.017 94.4709 131.858 102.757 137.115C106.588 139.61 90.4614 142.817 93.7581 146.114C96.9656 149.411 113.093 152.44 116.3 155.648C119.508 158.944 109.796 162.419 113.003 165.716C116.122 169.013 123.606 165.894 124.943 173.378C125.923 178.903 138.664 176.14 144.366 171.418C147.93 168.389 138.218 168.389 141.426 165.092C149.445 156.984 156.573 161.439 159.513 153.955C161.117 149.945 147.396 147.094 151.049 144.51C159.78 138.363 191.856 135.244 177.065 120.454L139.02 81.5175C134.298 77.0625 126.546 77.0625 122.181 81.5175ZM164.324 153.955C164.324 155.826 178.847 156.895 178.046 153.509C176.887 147.807 165.928 148.253 164.324 153.955ZM102.401 163.845C105.697 166.696 110.687 163.221 112.291 159.212C109.083 155.024 97.2329 159.479 102.401 163.845ZM162.542 157.875C158.444 161.617 163.255 165.538 167.265 162.954C168.334 162.241 167.176 158.766 162.542 157.875Z" fill="black"/>
</g>
</g>
<path d="M122.181 79.7772L85.4719 117.377C71.5724 131.276 94.4709 130.118 102.757 135.375C106.588 137.87 90.4614 141.077 93.7581 144.374C96.9656 147.671 113.093 150.7 116.3 153.907C119.508 157.204 109.796 160.679 113.003 163.976C116.122 167.272 123.606 164.154 124.943 171.638C125.923 177.162 138.664 174.4 144.366 169.678C147.93 166.649 138.218 166.649 141.426 163.352C149.445 155.244 156.573 159.699 159.513 152.215C161.117 148.205 147.396 145.354 151.049 142.77C159.78 136.622 191.856 133.504 177.065 118.713L139.02 79.7772C134.298 75.3223 126.546 75.3223 122.181 79.7772ZM164.324 152.215C164.324 154.086 178.847 155.155 178.046 151.769C176.887 146.067 165.928 146.512 164.324 152.215ZM102.401 162.105C105.697 164.956 110.687 161.481 112.291 157.471C109.083 153.284 97.2329 157.739 102.401 162.105ZM162.542 156.135C158.444 159.877 163.255 163.797 167.265 161.214C168.334 160.501 167.176 157.026 162.542 156.135Z" fill="black"/>
<mask id="mask0_307_1340" style="mask-type:luminance" maskUnits="userSpaceOnUse" x="81" y="76" width="100" height="99">
<path d="M122.264 80.2102L85.9024 117.454C72.1344 131.222 94.8163 130.075 103.024 135.282C106.819 137.753 90.8447 140.931 94.1102 144.196C97.2875 147.462 113.262 150.462 116.439 153.64C119.616 156.905 109.996 160.347 113.174 163.613C116.263 166.878 123.676 163.789 125 171.203C125.971 176.674 138.591 173.938 144.24 169.261C147.77 166.26 138.15 166.26 141.327 162.995C149.27 154.963 156.331 159.376 159.243 151.963C160.832 147.991 147.241 145.167 150.859 142.607C159.508 136.518 191.28 133.429 176.63 118.778L138.944 80.2102C134.267 75.7974 126.589 75.7974 122.264 80.2102ZM113.527 137.312C114.321 137.312 140.71 140.842 130.56 143.578C126.677 144.637 108.849 137.312 113.527 137.312ZM164.009 151.963C164.009 153.816 178.395 154.875 177.601 151.521C176.453 145.873 165.598 146.314 164.009 151.963ZM102.671 161.759C105.937 164.583 110.879 161.141 112.468 157.17C109.29 153.022 97.5522 157.435 102.671 161.759ZM162.244 155.846C158.184 159.553 162.95 163.436 166.922 160.877C167.981 160.171 166.833 156.729 162.244 155.846Z" fill="white"/>
</mask>
<g mask="url(#mask0_307_1340)">
<path d="M122.264 80.2102L85.9024 117.454C72.1344 131.222 94.8163 130.075 103.024 135.282C106.819 137.753 90.8447 140.931 94.1102 144.196C97.2875 147.462 113.262 150.462 116.439 153.64C119.616 156.905 109.996 160.347 113.174 163.613C116.263 166.878 123.676 163.789 125 171.203C125.971 176.674 138.591 173.938 144.24 169.261C147.77 166.26 138.15 166.26 141.327 162.995C149.27 154.963 156.331 159.376 159.243 151.963C160.832 147.991 147.241 145.167 150.859 142.607C159.508 136.518 191.28 133.429 176.63 118.778L138.944 80.2102C134.267 75.7974 126.589 75.7974 122.264 80.2102ZM113.527 137.312C114.321 137.312 140.71 140.842 130.56 143.578C126.677 144.637 108.849 137.312 113.527 137.312ZM164.009 151.963C164.009 153.816 178.395 154.875 177.601 151.521C176.453 145.873 165.598 146.314 164.009 151.963ZM102.671 161.759C105.937 164.583 110.879 161.141 112.468 157.17C109.29 153.022 97.5522 157.435 102.671 161.759ZM162.244 155.846C158.184 159.553 162.95 163.436 166.922 160.877C167.981 160.171 166.833 156.729 162.244 155.846Z" fill="url(#paint0_linear_307_1340)"/>
</g>
<path opacity="0.505263" d="M88.7375 119.461C78.7567 129.352 96.2906 126.565 109.778 131.87L137.652 82.8651C133.426 78.5491 128.031 78.9087 124.165 82.8651L88.7375 119.461Z" fill="url(#paint1_linear_307_1340)"/>
<path d="M136.793 82.4502L151.316 97.2406C152.652 98.5771 152.652 101.339 151.851 102.141L144.634 96.2605L143.208 104.903L137.238 101.696L127.527 107.843L124.319 94.924L119.151 106.15L106.232 106.061C103.737 106.061 104.094 103.478 106.677 100.894C111.756 95.2804 121.646 85.7468 124.764 82.4502C127.972 79.1535 133.585 79.2426 136.793 82.4502Z" fill="url(#paint2_linear_307_1340)"/>
<path opacity="0.216749" fill-rule="evenodd" clip-rule="evenodd" d="M116.86 152.321C116.86 152.321 118.436 154.728 118.275 155.86C117.96 158.082 113.174 159.191 114.235 161.169C115.282 163.123 119.058 162.016 122.228 164.06C125.384 166.095 124.535 170.242 126.829 171.286C131.302 173.321 143.051 167.776 142.461 167.894C141.871 168.012 130.866 170.299 128.388 168.293C125.564 166.006 124.754 164.409 122.67 163.057C120.717 161.79 117.975 161.273 117.336 160.236C116.698 159.198 118.615 157.86 118.747 155.86C118.827 154.66 116.86 152.321 116.86 152.321Z" fill="url(#paint3_radial_307_1340)"/>
<g opacity="0.275862" filter="url(#filter3_f_307_1340)">
<path fill-rule="evenodd" clip-rule="evenodd" d="M116.86 152.321C116.86 152.321 118.436 154.728 118.275 155.86C117.96 158.082 113.174 159.191 114.235 161.169C115.282 163.123 119.058 162.016 122.228 164.06C125.384 166.095 124.535 170.242 126.829 171.286C131.302 173.321 143.051 167.776 142.461 167.894C122.952 167.968 126.593 162.941 119.072 159.636C117.985 159.158 118.615 157.86 118.747 155.86C118.827 154.66 116.86 152.321 116.86 152.321Z" fill="url(#paint4_radial_307_1340)"/>
</g>
<path opacity="0.453202" fill-rule="evenodd" clip-rule="evenodd" d="M150.011 142.057C167.521 135.613 173.146 134.728 178.916 128.961C172.233 134.602 158.105 137.628 146.59 142.647L150.011 142.057Z" fill="url(#paint5_radial_307_1340)"/>
<g opacity="0.512315" filter="url(#filter4_f_307_1340)">
<path fill-rule="evenodd" clip-rule="evenodd" d="M150.011 141.231C178.847 131.012 173.972 131.071 178.916 128.135C169.748 131.645 152.614 132.019 146.59 141.821L150.011 141.231Z" fill="url(#paint6_radial_307_1340)"/>
</g>
<path opacity="0.285714" d="M175.2 149.401C175.2 149.706 174.805 149.999 174.102 150.214C173.4 150.43 172.447 150.551 171.454 150.551C170.46 150.551 169.508 150.43 168.805 150.214C168.103 149.999 167.708 149.706 167.708 149.401C167.708 149.096 168.103 148.803 168.805 148.588C169.508 148.372 170.46 148.251 171.454 148.251C172.447 148.251 173.4 148.372 174.102 148.588C174.805 148.803 175.2 149.096 175.2 149.401Z" fill="url(#paint7_linear_307_1340)"/>
<g opacity="0.620689" filter="url(#filter5_f_307_1340)">
<path d="M176.497 150.728C176.497 151.385 175.966 152.016 175.02 152.48C174.074 152.945 172.791 153.206 171.454 153.206C170.116 153.206 168.833 152.945 167.887 152.48C166.942 152.016 166.41 151.385 166.41 150.728C166.41 150.071 166.942 149.441 167.887 148.976C168.833 148.512 170.116 148.251 171.454 148.251C172.791 148.251 174.074 148.512 175.02 148.976C175.966 149.441 176.497 150.071 176.497 150.728Z" fill="url(#paint8_linear_307_1340)"/>
</g>
<g filter="url(#filter6_f_307_1340)">
<path fill-rule="evenodd" clip-rule="evenodd" d="M164.582 152.105C166.36 153.749 176.264 154.593 177.884 151.633C174.704 153.891 167.635 153.097 164.582 152.105Z" fill="url(#paint9_radial_307_1340)"/>
</g>
<path opacity="0.285714" d="M164.617 157.593C164.703 157.764 164.758 157.948 164.779 158.136C164.799 158.323 164.785 158.511 164.736 158.687C164.687 158.863 164.605 159.025 164.494 159.164C164.383 159.302 164.246 159.413 164.091 159.492C163.935 159.571 163.764 159.616 163.587 159.623C163.41 159.631 163.231 159.602 163.06 159.537C162.889 159.472 162.729 159.373 162.59 159.246C162.45 159.118 162.334 158.965 162.248 158.794C162.161 158.624 162.106 158.44 162.086 158.252C162.065 158.064 162.08 157.877 162.129 157.7C162.178 157.524 162.26 157.362 162.37 157.224C162.481 157.086 162.618 156.974 162.774 156.895C162.929 156.816 163.101 156.772 163.277 156.764C163.454 156.756 163.634 156.786 163.805 156.851C163.976 156.916 164.136 157.015 164.275 157.142C164.414 157.269 164.53 157.423 164.617 157.593Z" fill="url(#paint10_linear_307_1340)"/>
<g opacity="0.620689" filter="url(#filter7_f_307_1340)">
<path d="M165.319 157.911C165.448 158.166 165.532 158.441 165.564 158.72C165.597 159 165.578 159.279 165.509 159.54C165.44 159.802 165.322 160.042 165.161 160.246C165.001 160.45 164.801 160.614 164.574 160.729C164.347 160.844 164.097 160.908 163.838 160.917C163.578 160.926 163.315 160.879 163.063 160.78C162.811 160.681 162.575 160.532 162.369 160.34C162.163 160.149 161.99 159.919 161.861 159.664C161.732 159.409 161.648 159.134 161.616 158.855C161.583 158.575 161.602 158.297 161.671 158.035C161.74 157.773 161.858 157.534 162.019 157.33C162.179 157.126 162.379 156.961 162.606 156.846C162.833 156.731 163.083 156.667 163.343 156.659C163.602 156.65 163.865 156.696 164.117 156.795C164.369 156.894 164.605 157.043 164.811 157.235C165.017 157.426 165.19 157.656 165.319 157.911Z" fill="url(#paint11_linear_307_1340)"/>
</g>
<g filter="url(#filter8_f_307_1340)">
<path fill-rule="evenodd" clip-rule="evenodd" d="M162.152 160.917C163.582 162.036 168.963 162.179 166.921 158.928C167.454 161.474 163.779 161.205 162.152 160.917Z" fill="url(#paint12_radial_307_1340)"/>
</g>
<path fill-rule="evenodd" clip-rule="evenodd" d="M95.7416 144.062C95.7416 143.77 114.074 149.649 117.214 152.793C114.632 150.273 101.565 144.48 99.5759 144.416C97.5867 144.353 95.9776 144.18 95.7416 144.062Z" fill="url(#paint13_radial_307_1340)"/>
<path opacity="0.285714" d="M109.513 156.657C109.584 156.869 109.306 157.149 108.739 157.435C108.172 157.72 107.363 157.989 106.489 158.18C105.616 158.372 104.75 158.472 104.082 158.457C103.415 158.443 102.999 158.315 102.928 158.103C102.857 157.89 103.135 157.611 103.702 157.325C104.269 157.039 105.078 156.771 105.952 156.579C106.825 156.388 107.691 156.288 108.359 156.303C109.026 156.317 109.442 156.445 109.513 156.657Z" fill="url(#paint14_linear_307_1340)"/>
<g opacity="0.620689" filter="url(#filter9_f_307_1340)">
<path d="M110.964 157.33C111.118 157.787 110.798 158.329 110.075 158.834C109.353 159.34 108.286 159.77 107.11 160.028C105.934 160.286 104.746 160.352 103.806 160.211C102.866 160.07 102.251 159.734 102.097 159.277C101.944 158.82 102.264 158.279 102.986 157.773C103.709 157.267 104.776 156.838 105.952 156.579C107.127 156.321 108.316 156.255 109.256 156.396C110.196 156.537 110.811 156.873 110.964 157.33Z" fill="url(#paint15_linear_307_1340)"/>
</g>
<g opacity="0.615764" filter="url(#filter10_f_307_1340)">
<path fill-rule="evenodd" clip-rule="evenodd" d="M101.611 159.636C101.611 159.636 102.604 162.302 105.327 162.438C108.083 162.574 111.228 159.131 111.492 157.895C111.02 158.957 108.382 162.158 104.973 162.113C103.039 162.087 101.611 159.636 101.611 159.636Z" fill="url(#paint16_radial_307_1340)"/>
</g>
<g filter="url(#filter11_f_307_1340)">
<path d="M130.472 77.7446C127.712 77.7446 125.007 78.7444 123.094 80.696L86.3963 118.285C83.0412 121.64 82.2351 123.836 82.4425 125.078C82.5462 125.7 82.8511 126.239 83.5006 126.805C84.15 127.37 85.1324 127.924 86.3127 128.42C88.6734 129.411 91.8529 130.209 94.972 131.065C98.0912 131.921 101.146 132.824 103.464 134.295C103.818 134.525 104.15 134.808 104.383 135.213C104.617 135.619 104.699 136.154 104.606 136.606C104.42 137.508 103.865 137.984 103.297 138.415C102.163 139.278 100.604 139.995 99.0372 140.754C97.4708 141.513 95.8965 142.29 95.1113 142.926C94.7186 143.244 94.5766 143.53 94.5822 143.511C94.5879 143.491 94.4781 143.267 94.6658 143.455C95.1574 143.96 96.6919 144.826 98.6474 145.599C100.603 146.372 102.996 147.154 105.413 147.938C107.831 148.721 110.276 149.497 112.346 150.305C114.417 151.112 116.104 151.863 117.219 152.977C117.774 153.548 118.166 154.257 118.249 154.982C118.333 155.708 118.136 156.388 117.859 156.959C117.306 158.101 116.416 158.979 115.604 159.827C114.792 160.675 114.057 161.484 113.794 162.027C113.663 162.298 113.642 162.474 113.655 162.583C113.668 162.693 113.686 162.803 113.933 163.057C113.943 163.066 113.952 163.075 113.961 163.085C115.025 164.209 117.335 164.367 119.948 164.978C121.254 165.283 122.62 165.746 123.79 166.76C124.96 167.774 125.839 169.318 126.212 171.41C126.37 172.296 126.838 172.727 127.966 173.08C129.094 173.433 130.813 173.495 132.7 173.22C136.474 172.668 140.95 170.818 143.531 168.681C143.691 168.545 143.647 168.581 143.698 168.514C143.524 168.39 143.117 168.125 142.445 167.79C141.651 167.394 140.712 167.024 139.995 166.12C139.636 165.667 139.389 164.953 139.494 164.254C139.598 163.555 139.981 162.974 140.496 162.444C144.724 158.169 148.891 157.148 152.023 156.319C153.589 155.904 154.9 155.525 155.893 154.899C156.886 154.273 157.662 153.416 158.316 151.752C158.388 151.572 158.386 151.52 158.288 151.307C158.19 151.094 157.928 150.753 157.508 150.388C156.67 149.658 155.272 148.874 153.889 148.105C152.506 147.336 151.162 146.618 150.186 145.71C149.697 145.256 149.186 144.684 149.127 143.817C149.069 142.95 149.638 142.167 150.297 141.701C152.743 139.978 156.441 138.667 160.46 137.274C164.478 135.88 168.8 134.439 172.321 132.791C175.842 131.143 178.431 129.246 179.254 127.334C179.666 126.378 179.741 125.41 179.31 124.16C178.878 122.909 177.893 121.379 176.136 119.621L138.129 80.7239C138.12 80.7149 138.111 80.705 138.101 80.696C136.001 78.729 133.22 77.7446 130.472 77.7446ZM171.402 149.024C169.054 149.108 166.894 150.183 165.973 151.864C166.234 151.962 166.47 152.073 166.892 152.17C168.117 152.452 169.828 152.634 171.514 152.671C173.199 152.708 174.885 152.567 175.913 152.281C176.363 152.157 176.601 152.03 176.72 151.947C176.492 150.975 175.95 150.288 175.022 149.775C174.061 149.244 172.744 148.975 171.402 149.024ZM108.587 157.098C106.725 156.969 104.385 157.71 103.242 158.63C102.67 159.09 102.428 159.516 102.406 159.799C102.385 160.083 102.475 160.46 103.242 161.108C103.242 161.117 103.242 161.126 103.242 161.136C104.447 162.178 105.81 162.069 107.362 161.219C108.664 160.506 109.819 159.169 110.592 157.766C110.071 157.43 109.448 157.158 108.587 157.098ZM162.938 157.655C162.539 158.162 162.322 158.633 162.297 158.964C162.263 159.42 162.392 159.772 162.743 160.105C163.4 160.73 164.827 160.999 166.279 160.217C166.25 160.048 166.196 159.793 165.973 159.465C165.527 158.811 164.486 158.106 162.938 157.655Z" stroke="url(#paint17_radial_307_1340)" stroke-width="0.435076"/>
</g>
<g opacity="0.325123" filter="url(#filter12_f_307_1340)">
<path fill-rule="evenodd" clip-rule="evenodd" d="M110.351 136.609C108.136 137.262 100.957 139.975 101.976 142.047C102.952 144.032 119.645 144.832 122.207 150.748C123.324 153.329 119.643 155.275 120.575 157.927C121.293 159.97 126.845 165.102 130.358 167.528C133.114 169.432 136.733 165.996 135.259 163.148C132.911 158.611 143.283 153.055 147.985 150.531C150.728 149.058 142.329 141.829 142.329 141.829L110.351 136.609Z" fill="url(#paint18_linear_307_1340)"/>
</g>
<path fill-rule="evenodd" clip-rule="evenodd" d="M111.17 138.612C113.159 140.072 117.083 139.192 119.44 140.253C125.098 142.8 132.052 145.639 130.772 140.613L129.333 141.809L129.305 139.53L125.962 140.347C125.962 140.347 123.372 138.268 122.185 137.583C121.937 137.44 120.664 138.735 120.664 138.735L120.435 137.359C118.78 137.183 117.141 137.106 115.699 137.117C112.241 137.145 109.908 137.685 111.17 138.612Z" fill="url(#paint19_linear_307_1340)"/>
<g opacity="0.477832" filter="url(#filter13_f_307_1340)">
<path fill-rule="evenodd" clip-rule="evenodd" d="M148.311 143.243C147.546 146.062 157.721 149.891 156.958 151.836C155.279 156.118 146.092 153.201 139.066 162.169C138.059 163.454 140.48 168.043 140.154 167.499C139.827 166.955 137.341 163.164 137.978 161.299C139.977 155.449 159.302 153.269 155.762 150.477C153.726 148.871 146.405 144.435 148.311 143.243Z" fill="url(#paint20_radial_307_1340)"/>
</g>
<path opacity="0.586207" d="M171.207 149.035C171.207 149.158 171.09 149.276 170.881 149.362C170.671 149.449 170.388 149.498 170.092 149.498C169.796 149.498 169.513 149.449 169.304 149.362C169.095 149.276 168.977 149.158 168.977 149.035C168.977 148.913 169.095 148.795 169.304 148.709C169.513 148.622 169.796 148.573 170.092 148.573C170.388 148.573 170.671 148.622 170.881 148.709C171.09 148.795 171.207 148.913 171.207 149.035Z" fill="white"/>
<path opacity="0.586207" d="M163.756 157.574C163.756 157.696 163.682 157.814 163.549 157.901C163.417 157.987 163.237 158.036 163.049 158.036C162.862 158.036 162.682 157.987 162.549 157.901C162.417 157.814 162.342 157.696 162.342 157.574C162.342 157.451 162.417 157.334 162.549 157.247C162.682 157.16 162.862 157.111 163.049 157.111C163.237 157.111 163.417 157.16 163.549 157.247C163.682 157.334 163.756 157.451 163.756 157.574Z" fill="white"/>
<path opacity="0.586207" d="M107.36 157.166C107.36 157.288 107.228 157.406 106.993 157.493C106.759 157.579 106.441 157.628 106.109 157.628C105.777 157.628 105.459 157.579 105.224 157.493C104.99 157.406 104.858 157.288 104.858 157.166C104.858 157.043 104.99 156.926 105.224 156.839C105.459 156.752 105.777 156.704 106.109 156.704C106.441 156.704 106.759 156.752 106.993 156.839C107.228 156.926 107.36 157.043 107.36 157.166Z" fill="white"/>
<path opacity="0.251232" d="M106.653 136.826C100.279 140.768 90.3707 142.202 101.214 144.821C99.9226 141.944 104.011 142.262 106.653 136.826Z" fill="url(#paint21_linear_307_1340)"/>
<g opacity="0.363158" filter="url(#filter14_f_307_1340)">
<path d="M129.277 172.72C129.277 172.72 139.106 171.794 141.38 168.958C142.71 167.299 136.093 165.363 137.521 163.737C142.894 157.622 147.411 157.878 153.641 155.317C159.871 152.756 157.572 151.502 155.557 150.377C152.106 148.451 144.424 146.399 146.965 141.829C149.522 137.231 171.914 130.844 171.914 130.844C178.7 128.525 177.848 124.333 174.525 120.837L154.511 100.932C154.511 100.932 155.504 119.81 151.466 127.907C146.475 137.913 119.903 149.078 131.017 150.313C134.933 150.748 136.812 152.084 138.413 155.099C141.71 161.307 129.277 172.72 129.277 172.72Z" fill="url(#paint22_linear_307_1340)"/>
</g>
<defs>
<filter id="filter0_d_307_1340" x="0.723999" y="0.841797" width="260" height="260" filterUnits="userSpaceOnUse" color-interpolation-filters="sRGB">
<feFlood flood-opacity="0" result="BackgroundImageFix"/>
<feColorMatrix in="SourceAlpha" type="matrix" values="0 0 0 0 0 0 0 0 0 0 0 0 0 0 0 0 0 0 127 0" result="hardAlpha"/>
<feOffset dy="4"/>
<feGaussianBlur stdDeviation="20"/>
<feComposite in2="hardAlpha" operator="out"/>
<feColorMatrix type="matrix" values="0 0 0 0 0.0367917 0 0 0 0 0.0348958 0 0 0 0 0.0484375 0 0 0 0.1 0"/>
<feBlend mode="normal" in2="BackgroundImageFix" result="effect1_dropShadow_307_1340"/>
<feBlend mode="normal" in="SourceGraphic" in2="effect1_dropShadow_307_1340" result="shape"/>
</filter>
<filter id="filter1_f_307_1340" x="79.6574" y="75.8708" width="102.685" height="101.13" filterUnits="userSpaceOnUse" color-interpolation-filters="sRGB">
<feFlood flood-opacity="0" result="BackgroundImageFix"/>
<feBlend mode="normal" in="SourceGraphic" in2="BackgroundImageFix" result="shape"/>
<feGaussianBlur stdDeviation="0.71766" result="effect1_foregroundBlur_307_1340"/>
</filter>
<filter id="filter2_f_307_1340" x="74.873" y="71.9565" width="112.254" height="110.699" filterUnits="userSpaceOnUse" color-interpolation-filters="sRGB">
<feFlood flood-opacity="0" result="BackgroundImageFix"/>
<feBlend mode="normal" in="SourceGraphic" in2="BackgroundImageFix" result="shape"/>
<feGaussianBlur stdDeviation="3.10986" result="effect1_foregroundBlur_307_1340"/>
</filter>
<filter id="filter3_f_307_1340" x="112.234" y="150.473" width="32.0965" height="23.11" filterUnits="userSpaceOnUse" color-interpolation-filters="sRGB">
<feFlood flood-opacity="0" result="BackgroundImageFix"/>
<feBlend mode="normal" in="SourceGraphic" in2="BackgroundImageFix" result="shape"/>
<feGaussianBlur stdDeviation="0.923957" result="effect1_foregroundBlur_307_1340"/>
</filter>
<filter id="filter4_f_307_1340" x="144.59" y="126.135" width="36.3269" height="17.6864" filterUnits="userSpaceOnUse" color-interpolation-filters="sRGB">
<feFlood flood-opacity="0" result="BackgroundImageFix"/>
<feBlend mode="normal" in="SourceGraphic" in2="BackgroundImageFix" result="shape"/>
<feGaussianBlur stdDeviation="1.00025" result="effect1_foregroundBlur_307_1340"/>
</filter>
<filter id="filter5_f_307_1340" x="165.502" y="147.342" width="11.9038" height="6.77182" filterUnits="userSpaceOnUse" color-interpolation-filters="sRGB">
<feFlood flood-opacity="0" result="BackgroundImageFix"/>
<feBlend mode="normal" in="SourceGraphic" in2="BackgroundImageFix" result="shape"/>
<feGaussianBlur stdDeviation="0.454186" result="effect1_foregroundBlur_307_1340"/>
</filter>
<filter id="filter6_f_307_1340" x="163.807" y="150.859" width="14.8508" height="3.51419" filterUnits="userSpaceOnUse" color-interpolation-filters="sRGB">
<feFlood flood-opacity="0" result="BackgroundImageFix"/>
<feBlend mode="normal" in="SourceGraphic" in2="BackgroundImageFix" result="shape"/>
<feGaussianBlur stdDeviation="0.387214" result="effect1_foregroundBlur_307_1340"/>
</filter>
<filter id="filter7_f_307_1340" x="161.003" y="156.06" width="5.17411" height="5.45498" filterUnits="userSpaceOnUse" color-interpolation-filters="sRGB">
<feFlood flood-opacity="0" result="BackgroundImageFix"/>
<feBlend mode="normal" in="SourceGraphic" in2="BackgroundImageFix" result="shape"/>
<feGaussianBlur stdDeviation="0.29865" result="effect1_foregroundBlur_307_1340"/>
</filter>
<filter id="filter8_f_307_1340" x="161.643" y="158.418" width="6.24393" height="3.72829" filterUnits="userSpaceOnUse" color-interpolation-filters="sRGB">
<feFlood flood-opacity="0" result="BackgroundImageFix"/>
<feBlend mode="normal" in="SourceGraphic" in2="BackgroundImageFix" result="shape"/>
<feGaussianBlur stdDeviation="0.254613" result="effect1_foregroundBlur_307_1340"/>
</filter>
<filter id="filter9_f_307_1340" x="101.321" y="155.585" width="10.4188" height="5.43669" filterUnits="userSpaceOnUse" color-interpolation-filters="sRGB">
<feFlood flood-opacity="0" result="BackgroundImageFix"/>
<feBlend mode="normal" in="SourceGraphic" in2="BackgroundImageFix" result="shape"/>
<feGaussianBlur stdDeviation="0.369182" result="effect1_foregroundBlur_307_1340"/>
</filter>
<filter id="filter10_f_307_1340" x="100.984" y="157.268" width="11.1351" height="5.80064" filterUnits="userSpaceOnUse" color-interpolation-filters="sRGB">
<feFlood flood-opacity="0" result="BackgroundImageFix"/>
<feBlend mode="normal" in="SourceGraphic" in2="BackgroundImageFix" result="shape"/>
<feGaussianBlur stdDeviation="0.313625" result="effect1_foregroundBlur_307_1340"/>
</filter>
<filter id="filter11_f_307_1340" x="81.6135" y="76.946" width="98.785" height="97.2444" filterUnits="userSpaceOnUse" color-interpolation-filters="sRGB">
<feFlood flood-opacity="0" result="BackgroundImageFix"/>
<feBlend mode="normal" in="SourceGraphic" in2="BackgroundImageFix" result="shape"/>
<feGaussianBlur stdDeviation="0.290557" result="effect1_foregroundBlur_307_1340"/>
</filter>
<filter id="filter12_f_307_1340" x="98.6691" y="133.4" width="53.0745" height="37.8847" filterUnits="userSpaceOnUse" color-interpolation-filters="sRGB">
<feFlood flood-opacity="0" result="BackgroundImageFix"/>
<feBlend mode="normal" in="SourceGraphic" in2="BackgroundImageFix" result="shape"/>
<feGaussianBlur stdDeviation="1.60405" result="effect1_foregroundBlur_307_1340"/>
</filter>
<filter id="filter13_f_307_1340" x="136.794" y="142.164" width="21.2847" height="26.4597" filterUnits="userSpaceOnUse" color-interpolation-filters="sRGB">
<feFlood flood-opacity="0" result="BackgroundImageFix"/>
<feBlend mode="normal" in="SourceGraphic" in2="BackgroundImageFix" result="shape"/>
<feGaussianBlur stdDeviation="0.539901" result="effect1_foregroundBlur_307_1340"/>
</filter>
<filter id="filter14_f_307_1340" x="125.915" y="98.5222" width="53.5343" height="76.6075" filterUnits="userSpaceOnUse" color-interpolation-filters="sRGB">
<feFlood flood-opacity="0" result="BackgroundImageFix"/>
<feBlend mode="normal" in="SourceGraphic" in2="BackgroundImageFix" result="shape"/>
<feGaussianBlur stdDeviation="1.20502" result="effect1_foregroundBlur_307_1340"/>
</filter>
<linearGradient id="paint0_linear_307_1340" x1="146.992" y1="86.8295" x2="127.471" y2="104.481" gradientUnits="userSpaceOnUse">
<stop stop-color="#C0CDF9"/>
<stop offset="1" stop-color="#07092D" stop-opacity="0.288043"/>
</linearGradient>
<linearGradient id="paint1_linear_307_1340" x1="103.304" y1="99.7695" x2="125.783" y2="122.249" gradientUnits="userSpaceOnUse">
<stop stop-color="white"/>
<stop offset="1" stop-color="white" stop-opacity="0"/>
</linearGradient>
<linearGradient id="paint2_linear_307_1340" x1="127.437" y1="86.4596" x2="154.167" y2="113.189" gradientUnits="userSpaceOnUse">
<stop stop-color="white"/>
<stop offset="1" stop-color="white" stop-opacity="0"/>
</linearGradient>
<radialGradient id="paint3_radial_307_1340" cx="0" cy="0" r="1" gradientUnits="userSpaceOnUse" gradientTransform="translate(114.082 170.291) scale(22.672 15.1757)">
<stop stop-color="white"/>
<stop offset="1" stop-color="white" stop-opacity="0"/>
</radialGradient>
<radialGradient id="paint4_radial_307_1340" cx="0" cy="0" r="1" gradientUnits="userSpaceOnUse" gradientTransform="translate(126.036 170.835) scale(28.9275 19.3629)">
<stop stop-color="white"/>
<stop offset="1" stop-color="white" stop-opacity="0"/>
</radialGradient>
<radialGradient id="paint5_radial_307_1340" cx="0" cy="0" r="1" gradientUnits="userSpaceOnUse" gradientTransform="translate(162.753 135.804) scale(16.1629 6.8427)">
<stop stop-color="white"/>
<stop offset="1" stop-color="white" stop-opacity="0"/>
</radialGradient>
<radialGradient id="paint6_radial_307_1340" cx="0" cy="0" r="1" gradientUnits="userSpaceOnUse" gradientTransform="translate(166.174 137.692) scale(16.1629 6.8427)">
<stop stop-color="white"/>
<stop offset="1" stop-color="white" stop-opacity="0"/>
</radialGradient>
<linearGradient id="paint7_linear_307_1340" x1="172.25" y1="147.572" x2="172.309" y2="150.551" gradientUnits="userSpaceOnUse">
<stop stop-color="white"/>
<stop offset="1" stop-color="white" stop-opacity="0"/>
</linearGradient>
<linearGradient id="paint8_linear_307_1340" x1="172.368" y1="147.231" x2="172.368" y2="151.754" gradientUnits="userSpaceOnUse">
<stop stop-color="white"/>
<stop offset="1" stop-color="white" stop-opacity="0"/>
</linearGradient>
<radialGradient id="paint9_radial_307_1340" cx="0" cy="0" r="1" gradientUnits="userSpaceOnUse" gradientTransform="translate(171.233 152.616) scale(6.65099 0.982654)">
<stop stop-color="white"/>
<stop offset="1" stop-color="white" stop-opacity="0"/>
</radialGradient>
<linearGradient id="paint10_linear_307_1340" x1="162.912" y1="156.407" x2="164.379" y2="158.998" gradientUnits="userSpaceOnUse">
<stop stop-color="white"/>
<stop offset="1" stop-color="white" stop-opacity="0"/>
</linearGradient>
<linearGradient id="paint11_linear_307_1340" x1="162.361" y1="155.489" x2="164.406" y2="159.523" gradientUnits="userSpaceOnUse">
<stop stop-color="white"/>
<stop offset="1" stop-color="white" stop-opacity="0"/>
</linearGradient>
<radialGradient id="paint12_radial_307_1340" cx="0" cy="0" r="1" gradientUnits="userSpaceOnUse" gradientTransform="translate(164.801 161.105) rotate(-26.8861) scale(2.87571 0.982653)">
<stop stop-color="white"/>
<stop offset="1" stop-color="white" stop-opacity="0"/>
</radialGradient>
<radialGradient id="paint13_radial_307_1340" cx="0" cy="0" r="1" gradientUnits="userSpaceOnUse" gradientTransform="translate(105.947 147.007) scale(10.736 4.37045)">
<stop stop-color="white" stop-opacity="0.330049"/>
<stop offset="1" stop-color="white" stop-opacity="0"/>
</radialGradient>
<linearGradient id="paint14_linear_307_1340" x1="106.493" y1="155.954" x2="106.994" y2="158.074" gradientUnits="userSpaceOnUse">
<stop stop-color="white"/>
<stop offset="1" stop-color="white" stop-opacity="0"/>
</linearGradient>
<linearGradient id="paint15_linear_307_1340" x1="106.517" y1="155.693" x2="107.225" y2="158.917" gradientUnits="userSpaceOnUse">
<stop stop-color="white"/>
<stop offset="1" stop-color="white" stop-opacity="0"/>
</linearGradient>
<radialGradient id="paint16_radial_307_1340" cx="0" cy="0" r="1" gradientUnits="userSpaceOnUse" gradientTransform="translate(106.227 162.263) rotate(-15.4869) scale(6.07522 2.27305)">
<stop stop-color="white"/>
<stop offset="1" stop-color="white" stop-opacity="0"/>
</radialGradient>
<radialGradient id="paint17_radial_307_1340" cx="0" cy="0" r="1" gradientUnits="userSpaceOnUse" gradientTransform="translate(134.922 88.1517) scale(84.0607 82.7341)">
<stop stop-color="white"/>
<stop offset="1" stop-color="white" stop-opacity="0"/>
</radialGradient>
<linearGradient id="paint18_linear_307_1340" x1="110.351" y1="152.343" x2="135.585" y2="159.015" gradientUnits="userSpaceOnUse">
<stop stop-color="white"/>
<stop offset="1" stop-color="white" stop-opacity="0"/>
</linearGradient>
<linearGradient id="paint19_linear_307_1340" x1="123.728" y1="137.003" x2="120.893" y2="143.497" gradientUnits="userSpaceOnUse">
<stop stop-color="#EEEEEC"/>
<stop offset="1" stop-color="#EEEEEC" stop-opacity="0"/>
</linearGradient>
<radialGradient id="paint20_radial_307_1340" cx="0" cy="0" r="1" gradientUnits="userSpaceOnUse" gradientTransform="translate(147.649 155.121) scale(13.2106 16.7885)">
<stop stop-color="white"/>
<stop offset="1" stop-color="white" stop-opacity="0"/>
</radialGradient>
<linearGradient id="paint21_linear_307_1340" x1="100.997" y1="139.219" x2="104.967" y2="142.373" gradientUnits="userSpaceOnUse">
<stop stop-color="white"/>
<stop offset="1" stop-color="white" stop-opacity="0"/>
</linearGradient>
<linearGradient id="paint22_linear_307_1340" x1="147.468" y1="156.404" x2="135.672" y2="124.644" gradientUnits="userSpaceOnUse">
<stop stop-color="#729FCF"/>
<stop offset="1" stop-color="#729FCF" stop-opacity="0"/>
</linearGradient>
</defs>
</svg>
