<svg width="261" height="261" viewBox="0 0 261 261" fill="none" xmlns="http://www.w3.org/2000/svg">
<g filter="url(#filter0_d_307_1346)">
<rect x="40.724" y="36.8418" width="180" height="180" rx="32" fill="#1D1F23"/>
<rect x="41.224" y="37.3418" width="179" height="179" rx="31.5" stroke="black"/>
</g>
<path d="M175.853 140.065C175.853 144.768 172.005 148.616 167.302 148.616H95.4291C90.726 148.616 86.8779 144.768 86.8779 140.065V112.832C86.8779 108.129 90.726 104.281 95.4291 104.281H167.302C172.005 104.281 175.853 108.129 175.853 112.832V140.065Z" fill="url(#paint0_linear_307_1346)"/>
<path d="M160.818 125.867C164.575 127.181 166.452 129.433 166.452 132.619C166.452 134.716 165.674 136.38 164.12 137.611C162.568 138.843 160.353 139.608 157.471 139.608C154.589 139.608 151.923 138.773 149.467 137.402C149.494 136.675 149.686 135.877 150.039 135.011C150.391 134.145 150.809 133.457 151.287 132.955C153.544 134.128 155.508 134.715 157.175 134.715C157.963 134.715 158.572 134.583 158.997 134.317C159.422 134.051 159.633 133.695 159.633 133.248C159.633 132.407 158.982 131.778 157.683 131.359L155.351 130.478C151.822 129.192 150.058 127.096 150.058 124.186C150.058 122.06 150.799 120.376 152.281 119.13C153.764 117.886 155.762 116.814 158.274 116.814C159.517 116.814 160.885 116.989 162.382 117.338C163.878 117.688 165.106 118.551 166.066 119.025C166.123 119.809 165.966 120.669 165.601 121.605C165.233 122.543 164.782 123.206 164.244 123.598C161.871 122.535 159.896 122.004 158.314 122.004C157.747 122.004 157.321 122.129 157.021 122.382C156.725 122.634 156.58 122.955 156.58 123.347C156.58 124.018 157.115 124.549 158.189 124.941L160.818 125.867Z" fill="#F6F6F6"/>
<path d="M142.056 125.867C145.812 127.181 147.689 129.433 147.689 132.619C147.689 134.716 146.91 136.38 145.359 137.611C143.805 138.843 141.59 139.608 138.709 139.608C135.829 139.608 133.159 138.773 130.705 137.402C130.731 136.675 130.923 135.877 131.277 135.011C131.63 134.145 132.046 133.457 132.526 132.955C134.785 134.128 136.748 134.715 138.414 134.715C139.203 134.715 139.812 134.583 140.235 134.317C140.658 134.051 140.871 133.695 140.871 133.248C140.871 132.407 140.22 131.778 138.922 131.359L136.591 130.478C133.061 129.192 131.296 127.096 131.296 124.186C131.296 122.06 132.037 120.376 133.521 119.13C135.003 117.886 137 116.814 139.512 116.814C140.754 116.814 142.126 116.989 143.62 117.338C145.117 117.688 146.344 118.551 147.305 119.025C147.361 119.809 147.204 120.669 146.839 121.605C146.472 122.543 146.02 123.206 145.483 123.598C143.109 122.535 141.134 122.004 139.551 122.004C138.986 122.004 138.557 122.129 138.259 122.382C137.964 122.634 137.817 122.955 137.817 123.347C137.817 124.018 138.353 124.549 139.427 124.941L142.056 125.867Z" fill="#F6F6F6"/>
<path d="M128.373 126.163C128.373 124.877 128.168 123.688 127.759 122.597C127.351 121.505 126.764 120.569 126.002 119.786C125.24 119.002 124.315 118.388 123.229 117.94C122.141 117.493 120.92 116.82 119.565 116.82C117.955 116.82 116.55 117.548 115.351 118.108C114.151 118.667 113.163 119.436 112.387 120.415C111.609 121.395 111.03 122.548 110.649 123.876C110.268 125.204 110.078 126.652 110.078 128.217C110.078 129.838 110.232 131.337 110.544 132.706C110.854 134.075 111.384 135.263 112.132 136.271C112.88 137.277 113.854 138.06 115.055 138.618C116.255 139.177 117.745 139.607 119.523 139.607C122.798 139.607 125.565 138.658 127.824 137.065C127.6 135.445 127.023 134.156 126.095 133.206C124.942 133.639 123.921 133.949 123.036 134.14C122.15 134.328 121.369 134.423 120.694 134.423C119.344 134.423 118.373 134.079 117.783 133.385C117.194 132.694 116.871 131.877 116.814 130.635H127.825C128.189 129.458 128.373 127.869 128.373 126.163ZM116.772 126.453C116.856 125.026 117.116 123.498 117.549 122.87C117.984 122.24 118.648 121.926 119.546 121.926C120.47 121.926 121.164 122.26 121.625 122.931C122.088 123.603 122.319 124.955 122.319 125.99L122.32 126.453H116.772Z" fill="#F6F6F6"/>
<path d="M178.07 129.244C176.873 130.289 176.179 131.794 176.179 133.761V141.088C176.179 143.524 175.43 145.376 173.739 146.65C172.05 147.922 170.08 148.551 167.831 148.612L166.499 148.602V144.951C167.673 144.608 168.156 144.21 168.623 143.757C169.47 142.992 170.119 141.747 170.119 140.018V134.103C170.151 132.092 170.305 130.517 171.037 129.379C171.772 128.241 173.202 127.246 175.327 126.386C172.98 125.312 171.403 123.908 170.6 122.177C170.127 121.149 170.118 119.762 170.118 118.017V112.592C170.118 110.801 169.532 109.545 168.81 108.829C168.341 108.362 167.796 107.988 166.497 107.706V104.279C168.085 104.296 168.887 104.277 169.812 104.279C171.236 104.267 172.429 105.046 173.467 105.857C174.597 106.746 175.401 107.948 175.872 109.461C176.14 110.336 176.178 111.171 176.178 111.966V118.24C176.178 120.455 176.833 122.103 177.951 123.178C178.582 123.802 179.472 124.373 181 124.888V127.722C179.646 128.096 178.796 128.603 178.07 129.244Z" fill="#F6F6F6" stroke="#404040" stroke-width="0.538843" stroke-miterlimit="10"/>
<path d="M93.8374 104.281V104.286C93.3824 104.283 92.9706 104.282 92.6413 104.283C91.2163 104.27 90.0236 105.049 88.9863 105.86C87.8542 106.75 86.8852 107.91 86.5816 109.465C86.4086 110.376 86.4452 111.173 86.4452 111.969V118.243C86.4452 120.458 85.6209 122.104 84.5029 123.182C83.8732 123.805 82.5289 124.375 81 124.89V127.724C82.355 128.098 83.6594 128.603 84.383 129.245C85.5808 130.292 86.4442 131.798 86.4442 133.765V141.091C86.4442 143.525 87.0249 145.379 88.7143 146.651C90.4037 147.922 92.3726 148.554 94.621 148.616L96.1258 148.606V144.953C94.952 144.609 94.3 144.21 93.83 143.76C92.984 142.993 92.5048 141.749 92.5048 140.021V134.105C92.4724 132.093 92.148 130.519 91.4152 129.38C90.6824 128.244 89.2525 127.247 87.1247 126.389C89.473 125.313 91.0484 123.911 91.852 122.18C92.3253 121.152 92.505 119.764 92.505 118.019V112.595C92.505 110.803 92.9208 109.548 93.6412 108.831C94.0322 108.441 94.7275 108.121 95.6934 107.862L97.2206 107.872C97.2206 106.558 97.2206 105.735 97.2206 104.281H93.8376V104.281H93.8374Z" fill="#F6F6F6" stroke="#404040" stroke-width="0.538843" stroke-miterlimit="10"/>
<path d="M107.918 134.005H106.774C105.531 134.005 105.062 133.351 105.062 132.038V107.899C105.062 106.448 104.643 105.429 104.106 104.842C103.57 104.256 102.638 104.262 101.311 104.262H98.7286L98.4242 104.256V104.281L98.4217 107.874V133.206C98.4217 135.221 98.8742 136.695 99.6793 137.633C100.485 138.569 101.847 139.037 103.767 139.037C105.095 139.037 106.605 138.897 108.299 138.617C108.384 138.334 108.426 137.729 108.426 136.799C108.426 135.868 108.256 134.939 107.918 134.005Z" fill="#F6F6F6"/>
<defs>
<filter id="filter0_d_307_1346" x="0.723999" y="0.841797" width="260" height="260" filterUnits="userSpaceOnUse" color-interpolation-filters="sRGB">
<feFlood flood-opacity="0" result="BackgroundImageFix"/>
<feColorMatrix in="SourceAlpha" type="matrix" values="0 0 0 0 0 0 0 0 0 0 0 0 0 0 0 0 0 0 127 0" result="hardAlpha"/>
<feOffset dy="4"/>
<feGaussianBlur stdDeviation="20"/>
<feComposite in2="hardAlpha" operator="out"/>
<feColorMatrix type="matrix" values="0 0 0 0 0.0367917 0 0 0 0 0.0348958 0 0 0 0 0.0484375 0 0 0 0.1 0"/>
<feBlend mode="normal" in2="BackgroundImageFix" result="effect1_dropShadow_307_1346"/>
<feBlend mode="normal" in="SourceGraphic" in2="effect1_dropShadow_307_1346" result="shape"/>
</filter>
<linearGradient id="paint0_linear_307_1346" x1="131.366" y1="104.281" x2="131.366" y2="148.616" gradientUnits="userSpaceOnUse">
<stop offset="0.1497" stop-color="#2A4F84"/>
<stop offset="0.3884" stop-color="#294E82"/>
<stop offset="1" stop-color="#172E4E"/>
</linearGradient>
</defs>
</svg>
