<svg width="261" height="261" viewBox="0 0 261 261" fill="none" xmlns="http://www.w3.org/2000/svg">
<g filter="url(#filter0_d_301_8913)">
<rect x="40.724" y="36.4058" width="180" height="180" rx="32" fill="#1D1F23"/>
<rect x="41.224" y="36.9058" width="179" height="179" rx="31.5" stroke="black"/>
</g>
<path fill-rule="evenodd" clip-rule="evenodd" d="M120.094 87.2702C122.898 82.788 126.617 78.9478 131.006 76C135.338 78.879 139.009 82.6462 141.778 87.0492C149.087 97.1853 152.773 109.483 152.245 121.969C154.517 123.801 156.859 125.561 159.094 127.429C162.298 130.285 163.788 134.596 163.036 138.82C161.956 144.026 160.922 149.242 159.782 154.435C159.025 156.705 156.567 157.933 154.294 157.174C153.898 157.041 153.525 156.853 153.181 156.613C149.514 153.668 145.941 150.62 142.286 147.672C139.466 150.313 135.817 151.898 131.963 152.154C127.514 152.371 123.163 150.803 119.875 147.797C117.248 149.729 114.807 152.052 112.239 154.126C111.113 155.231 109.86 156.196 108.503 157.003C106.27 157.868 103.758 156.761 102.891 154.528C102.849 154.42 102.811 154.312 102.778 154.201C101.604 149.123 100.376 144.061 99.2403 138.976C98.3563 134.561 99.9491 130.012 103.397 127.114C105.392 125.505 107.413 123.924 109.447 122.361C110.012 122.073 109.729 121.427 109.758 120.929C109.487 108.891 113.121 97.0873 120.113 87.2869M123.711 103.006C121.055 106.427 121.374 111.297 124.46 114.341C128.01 117.806 133.639 117.922 137.329 114.605C139.953 112.239 140.856 108.503 139.599 105.199C138.325 102.02 135.371 99.8226 131.958 99.5182C128.794 99.1888 125.681 100.504 123.709 103.002" fill="#754ABC"/>
<path d="M118.827 158.437C118.912 157.248 119.944 156.354 121.133 156.437C121.445 156.46 121.75 156.55 122.025 156.702C127.697 159.446 134.314 159.446 139.989 156.702C141.044 156.125 142.368 156.512 142.945 157.569C143.072 157.799 143.156 158.049 143.191 158.31C143.208 161.489 143.208 164.668 143.191 167.847C143.072 169.029 142.018 169.892 140.836 169.771C140.475 169.736 140.131 169.609 139.833 169.405C138.88 168.596 138.021 167.687 137.106 166.836C135.651 169.557 134.287 172.315 132.824 175.027C132.159 176.03 130.806 176.301 129.803 175.636C129.57 175.48 129.367 175.281 129.209 175.05C127.741 172.331 126.384 169.557 124.902 166.84C123.999 167.695 123.138 168.602 122.183 169.409C121.199 170.078 119.859 169.821 119.189 168.837C118.987 168.539 118.862 168.193 118.827 167.833C118.802 164.697 118.827 161.56 118.827 158.424" fill="#754ABC"/>
<path d="M130.936 112.638C133.344 112.694 135.339 110.787 135.395 108.381V108.354C135.356 105.948 133.373 104.028 130.968 104.065L130.936 104.067C128.53 104.013 126.535 105.921 126.483 108.327L126.481 108.354C126.523 110.762 128.508 112.68 130.913 112.638H130.936Z" fill="#754ABC"/>
<defs>
<filter id="filter0_d_301_8913" x="0.723999" y="0.405762" width="260" height="260" filterUnits="userSpaceOnUse" color-interpolation-filters="sRGB">
<feFlood flood-opacity="0" result="BackgroundImageFix"/>
<feColorMatrix in="SourceAlpha" type="matrix" values="0 0 0 0 0 0 0 0 0 0 0 0 0 0 0 0 0 0 127 0" result="hardAlpha"/>
<feOffset dy="4"/>
<feGaussianBlur stdDeviation="20"/>
<feComposite in2="hardAlpha" operator="out"/>
<feColorMatrix type="matrix" values="0 0 0 0 0.0367917 0 0 0 0 0.0348958 0 0 0 0 0.0484375 0 0 0 0.1 0"/>
<feBlend mode="normal" in2="BackgroundImageFix" result="effect1_dropShadow_301_8913"/>
<feBlend mode="normal" in="SourceGraphic" in2="effect1_dropShadow_301_8913" result="shape"/>
</filter>
</defs>
</svg>
