<svg width="261" height="261" viewBox="0 0 261 261" fill="none" xmlns="http://www.w3.org/2000/svg">
<g filter="url(#filter0_d_307_1347)">
<rect x="40.724" y="36.6238" width="180" height="180" rx="32" fill="#1D1F23"/>
<rect x="41.224" y="37.1238" width="179" height="179" rx="31.5" stroke="black"/>
</g>
<g clip-path="url(#clip0_307_1347)">
<path d="M174.96 104.626C180.327 115.161 181.682 127.289 178.772 138.749C175.861 150.209 168.884 160.22 159.139 166.918C149.395 173.615 137.548 176.541 125.806 175.151C114.064 173.762 103.227 168.15 95.3153 159.363C87.4035 150.576 82.9559 139.213 82.8011 127.39C82.6463 115.567 86.795 104.091 94.474 95.0996C102.153 86.1086 112.839 80.2157 124.541 78.519C136.242 76.8223 148.162 79.4375 158.078 85.8773" stroke="#808080" stroke-width="1.1309" stroke-dasharray="4.25 4.25"/>
<path d="M131.534 164.448C152.353 164.448 169.23 147.571 169.23 126.752C169.23 105.933 152.353 89.0559 131.534 89.0559C110.715 89.0559 93.838 105.933 93.838 126.752C93.838 147.571 110.715 164.448 131.534 164.448Z" fill="#000080"/>
<path d="M147.149 122.179C153.246 122.179 158.19 117.235 158.19 111.138C158.19 105.04 153.246 100.097 147.149 100.097C141.051 100.097 136.108 105.04 136.108 111.138C136.108 117.235 141.051 122.179 147.149 122.179Z" fill="white"/>
<path d="M169.23 100.097C175.328 100.097 180.271 95.1537 180.271 89.0559C180.271 82.958 175.328 78.0148 169.23 78.0148C163.132 78.0148 158.189 82.958 158.189 89.0559C158.189 95.1537 163.132 100.097 169.23 100.097Z" fill="#000080"/>
<path d="M121.323 145.6V142.818H109.109V120.867H105.954V145.6H121.323Z" fill="white"/>
<path d="M138.279 145.6V127.822H135.463V137.627C135.463 141.257 133.563 143.632 130.611 143.632C128.372 143.632 126.947 142.275 126.947 140.137V127.822H124.131V141.257C124.131 144.209 126.336 146.109 129.797 146.109C132.409 146.109 134.072 145.192 135.734 142.852V145.6H138.279Z" fill="white"/>
<path d="M158.962 145.532V143.394C158.656 143.462 158.521 143.462 158.351 143.462C157.367 143.462 156.824 142.953 156.824 142.071V132.165C156.824 129.009 154.517 127.313 150.141 127.313C145.832 127.313 143.186 128.975 143.016 133.081H145.866C146.104 130.909 147.393 129.925 150.039 129.925C152.584 129.925 154.008 130.875 154.008 132.572V133.318C154.008 134.505 153.296 135.014 151.057 135.286C147.053 135.795 146.443 135.93 145.357 136.371C143.288 137.22 142.236 138.814 142.236 140.986C142.236 144.209 144.475 146.109 148.071 146.109C150.344 146.109 152.55 145.159 154.11 143.496C154.416 144.853 155.637 145.837 157.028 145.837C157.605 145.837 158.046 145.769 158.962 145.532ZM154.008 139.459C154.008 142.003 151.43 143.632 148.682 143.632C146.477 143.632 145.187 142.852 145.187 140.918C145.187 139.052 146.443 138.237 149.462 137.796C152.448 137.389 153.059 137.254 154.008 136.813V139.459Z" fill="white"/>
</g>
<defs>
<filter id="filter0_d_307_1347" x="0.723999" y="0.623779" width="260" height="260" filterUnits="userSpaceOnUse" color-interpolation-filters="sRGB">
<feFlood flood-opacity="0" result="BackgroundImageFix"/>
<feColorMatrix in="SourceAlpha" type="matrix" values="0 0 0 0 0 0 0 0 0 0 0 0 0 0 0 0 0 0 127 0" result="hardAlpha"/>
<feOffset dy="4"/>
<feGaussianBlur stdDeviation="20"/>
<feComposite in2="hardAlpha" operator="out"/>
<feColorMatrix type="matrix" values="0 0 0 0 0.0367917 0 0 0 0 0.0348958 0 0 0 0 0.0484375 0 0 0 0.1 0"/>
<feBlend mode="normal" in2="BackgroundImageFix" result="effect1_dropShadow_307_1347"/>
<feBlend mode="normal" in="SourceGraphic" in2="effect1_dropShadow_307_1347" result="shape"/>
</filter>
<clipPath id="clip0_307_1347">
<rect width="100" height="100" fill="white" transform="translate(81 76.218)"/>
</clipPath>
</defs>
</svg>
