<svg width="261" height="261" viewBox="0 0 261 261" fill="none" xmlns="http://www.w3.org/2000/svg">
<g filter="url(#filter0_d_301_8850)">
<rect x="40.724" y="36.4058" width="180" height="180" rx="32" fill="#1D1F23"/>
<rect x="41.224" y="36.9058" width="179" height="179" rx="31.5" stroke="black"/>
</g>
<g clip-path="url(#clip0_301_8850)">
<path d="M81 116C81 101.999 81 94.998 83.725 89.65C86.1218 84.9462 89.9462 81.1218 94.65 78.725C99.998 76 107 76 121 76H141C155.001 76 162.002 76 167.35 78.725C172.054 81.1218 175.878 84.9462 178.275 89.65C181 94.998 181 102 181 116V136C181 150.001 181 157.002 178.275 162.35C175.878 167.054 172.054 170.878 167.35 173.275C162.002 176 155 176 141 176H121C106.999 176 99.998 176 94.65 173.275C89.9462 170.878 86.1218 167.054 83.725 162.35C81 157.002 81 150 81 136V116Z" fill="#179DE3"/>
<path d="M158.48 110.619C156.217 109.779 154.161 108.461 152.454 106.754C150.747 105.047 149.429 102.991 148.589 100.728C147.748 102.991 146.429 105.045 144.722 106.752C143.016 108.459 140.961 109.777 138.698 110.618C140.961 111.459 143.015 112.778 144.722 114.485C146.428 116.193 147.747 118.247 148.588 120.51C149.429 118.247 150.748 116.192 152.455 114.485C154.162 112.778 156.217 111.46 158.48 110.619Z" fill="white"/>
<path d="M131.122 101H106.122V151H156.112V126L131.122 150.99V101Z" fill="white"/>
</g>
<defs>
<filter id="filter0_d_301_8850" x="0.723999" y="0.405762" width="260" height="260" filterUnits="userSpaceOnUse" color-interpolation-filters="sRGB">
<feFlood flood-opacity="0" result="BackgroundImageFix"/>
<feColorMatrix in="SourceAlpha" type="matrix" values="0 0 0 0 0 0 0 0 0 0 0 0 0 0 0 0 0 0 127 0" result="hardAlpha"/>
<feOffset dy="4"/>
<feGaussianBlur stdDeviation="20"/>
<feComposite in2="hardAlpha" operator="out"/>
<feColorMatrix type="matrix" values="0 0 0 0 0.0367917 0 0 0 0 0.0348958 0 0 0 0 0.0484375 0 0 0 0.1 0"/>
<feBlend mode="normal" in2="BackgroundImageFix" result="effect1_dropShadow_301_8850"/>
<feBlend mode="normal" in="SourceGraphic" in2="effect1_dropShadow_301_8850" result="shape"/>
</filter>
<clipPath id="clip0_301_8850">
<rect width="100" height="100" fill="white" transform="translate(81 76)"/>
</clipPath>
</defs>
</svg>
