<svg width="261" height="261" viewBox="0 0 261 261" fill="none" xmlns="http://www.w3.org/2000/svg">
<g filter="url(#filter0_d_307_1356)">
<rect x="40.724" y="36.6238" width="180" height="180" rx="32" fill="#1D1F23"/>
<rect x="41.224" y="37.1238" width="179" height="179" rx="31.5" stroke="black"/>
</g>
<path d="M131.397 91.9484C131.397 91.9484 127.565 94.9765 123.659 97.9841C119.64 97.8564 111.759 98.7562 107.488 100.309C103.554 97.8169 100.097 95.0651 100.097 95.0651C100.097 95.0651 97.1433 100.147 95.2857 103.129C92.5307 104.594 89.7648 106.242 87.2996 108.423C84.4323 107.284 81.1085 105.896 81 105.85C84.7971 113.509 87.3497 121.178 94.2936 125.788C105.349 108.328 156.72 109.937 168.004 125.689C175.296 121.885 178.132 113.702 181 106.147C180.686 106.251 176.783 107.557 174.254 108.522C172.744 106.878 169.184 104.35 167.161 103.129C165.242 99.6149 162.448 94.8673 162.448 94.8673C162.448 94.8673 159.14 97.3278 155.306 100.012C150.125 99.0561 143.859 97.8942 138.589 98.1819C135.002 95.2332 131.397 91.9484 131.397 91.9484Z" fill="#F3D400"/>
<path d="M84.926 122.127C84.926 122.127 90.3079 135.158 94.0456 144.213C109.884 165.109 150.329 166.561 167.961 144.618C172.134 135.214 177.763 122 177.763 122C173.239 128.701 165.878 133.327 161.344 135.819C158.122 137.584 150.688 138.651 150.688 138.651L131.172 128.537L111.543 138.448C111.543 138.448 104.208 137.27 100.888 135.718C94.1857 132.14 89.6781 127.913 84.926 122.127Z" fill="#FFE953"/>
<defs>
<filter id="filter0_d_307_1356" x="0.723999" y="0.623779" width="260" height="260" filterUnits="userSpaceOnUse" color-interpolation-filters="sRGB">
<feFlood flood-opacity="0" result="BackgroundImageFix"/>
<feColorMatrix in="SourceAlpha" type="matrix" values="0 0 0 0 0 0 0 0 0 0 0 0 0 0 0 0 0 0 127 0" result="hardAlpha"/>
<feOffset dy="4"/>
<feGaussianBlur stdDeviation="20"/>
<feComposite in2="hardAlpha" operator="out"/>
<feColorMatrix type="matrix" values="0 0 0 0 0.0367917 0 0 0 0 0.0348958 0 0 0 0 0.0484375 0 0 0 0.1 0"/>
<feBlend mode="normal" in2="BackgroundImageFix" result="effect1_dropShadow_307_1356"/>
<feBlend mode="normal" in="SourceGraphic" in2="effect1_dropShadow_307_1356" result="shape"/>
</filter>
</defs>
</svg>
