<svg width="261" height="261" viewBox="0 0 261 261" fill="none" xmlns="http://www.w3.org/2000/svg">
<g filter="url(#filter0_d_301_8856)">
<rect x="40.724" y="36.8909" width="180" height="180" rx="32" fill="#1D1F23"/>
<rect x="41.224" y="37.3909" width="179" height="179" rx="31.5" stroke="black"/>
</g>
<path d="M137.101 159.667H174.275C175.456 159.667 176.616 159.359 177.638 158.774C178.661 158.188 179.51 157.347 180.1 156.333C180.69 155.32 181 154.17 181 153C180.999 151.83 180.688 150.68 180.097 149.667L155.132 106.81C154.542 105.797 153.693 104.955 152.671 104.37C151.648 103.785 150.489 103.477 149.308 103.477C148.128 103.477 146.968 103.785 145.946 104.37C144.923 104.955 144.075 105.797 143.484 106.81L137.101 117.775L124.62 96.3325C124.029 95.3193 123.18 94.4779 122.158 93.8929C121.135 93.3079 119.975 93 118.794 93C117.614 93 116.454 93.3079 115.431 93.8929C114.409 94.4779 113.559 95.3193 112.969 96.3325L81.903 149.667C81.312 150.68 81.0005 151.83 81 153C80.9995 154.17 81.3099 155.32 81.9 156.333C82.4901 157.347 83.3392 158.188 84.3617 158.774C85.3842 159.359 86.5442 159.667 87.7249 159.667H111.06C120.305 159.667 127.123 155.642 131.815 147.789L143.205 128.238L149.306 117.775L167.616 149.204H143.205L137.101 159.667ZM110.679 149.193L94.3946 149.189L118.806 107.287L130.986 128.238L122.831 142.242C119.715 147.337 116.175 149.193 110.679 149.193Z" fill="#00DC82"/>
<defs>
<filter id="filter0_d_301_8856" x="0.723999" y="0.890869" width="260" height="260" filterUnits="userSpaceOnUse" color-interpolation-filters="sRGB">
<feFlood flood-opacity="0" result="BackgroundImageFix"/>
<feColorMatrix in="SourceAlpha" type="matrix" values="0 0 0 0 0 0 0 0 0 0 0 0 0 0 0 0 0 0 127 0" result="hardAlpha"/>
<feOffset dy="4"/>
<feGaussianBlur stdDeviation="20"/>
<feComposite in2="hardAlpha" operator="out"/>
<feColorMatrix type="matrix" values="0 0 0 0 0.0367917 0 0 0 0 0.0348958 0 0 0 0 0.0484375 0 0 0 0.1 0"/>
<feBlend mode="normal" in2="BackgroundImageFix" result="effect1_dropShadow_301_8856"/>
<feBlend mode="normal" in="SourceGraphic" in2="effect1_dropShadow_301_8856" result="shape"/>
</filter>
</defs>
</svg>
