<svg width="261" height="261" viewBox="0 0 261 261" fill="none" xmlns="http://www.w3.org/2000/svg">
<g filter="url(#filter0_d_307_1350)">
<rect x="40.724" y="36.6238" width="180" height="180" rx="32" fill="#1D1F23"/>
<rect x="41.224" y="37.1238" width="179" height="179" rx="31.5" stroke="black"/>
</g>
<path d="M132.881 159.36C132.683 158.568 133.079 157.578 132.683 156.786C132.485 155.994 131.891 155.994 131.693 155.4C130.901 153.816 129.911 152.034 129.911 150.053C129.911 148.469 129.317 146.885 129.119 145.301C129.119 144.509 129.119 143.717 129.119 142.925C129.119 142.529 129.119 142.133 128.921 141.737C128.921 141.539 128.921 141.143 128.723 141.143L128.921 140.548C128.921 140.35 130.703 140.35 131.297 140.35C132.287 140.35 133.079 140.35 134.069 140.548C136.05 140.548 137.634 140.548 139.614 140.35C143.772 139.756 145.554 137.974 146.545 137.38C150.307 134.806 152.089 130.251 152.089 130.251C152.683 128.865 152.683 126.291 154.069 125.301C155.653 123.915 158.228 124.113 160.01 123.321C161 122.925 161.792 122.529 162.98 122.727C163.772 122.925 165.158 123.915 165.554 122.529C165.356 122.331 165.158 122.133 164.96 121.935C166.545 121.737 164.96 118.37 164.366 117.578C163.376 116.588 161.99 115.994 160.406 115.598C158.426 115.004 156.644 114.41 154.861 114.806C151.693 115.4 151.891 113.618 150.109 113.618C147.931 113.618 143.97 113.816 143.178 115.994C142.782 116.984 142.584 116.984 141.99 117.776C141.594 118.37 141.99 118.964 141.792 119.756C141.594 120.548 141.198 123.321 140.802 124.311C140.208 125.895 139.416 127.875 138.03 127.875C136.05 128.073 134.465 128.271 132.881 127.677C131.891 127.281 130.307 126.687 129.515 126.489C125.752 124.905 125.158 123.321 125.158 123.321C124.762 122.727 123.772 121.539 123.376 120.152C122.98 118.568 122.188 117.38 121.99 116.588C121.594 115.796 121 114.41 120.406 113.024C119.614 111.242 118.624 109.855 117.832 109.261C116.644 108.271 115.653 106.687 113.277 107.083C112.881 107.083 111.297 107.281 110.109 108.271C109.317 108.865 109.119 110.251 108.327 111.44C107.931 112.034 107.139 114.014 106.545 115.598C106.149 116.786 105.95 117.578 105.356 117.974C104.96 118.37 104.564 118.766 103.97 118.568C103.574 118.37 103.178 118.172 102.782 117.974C102.188 117.578 101 115.4 100.208 114.014C99.6139 112.628 98.2277 110.648 97.4356 109.657C96.2475 108.073 95.6535 107.677 93.8713 107.677C90.3069 107.677 89.9109 109.657 88.3267 112.628C87.5347 114.014 87.3366 115.994 85.9505 117.578C85.3564 118.37 82.7822 122.133 81 122.727V150.053V149.855C81.198 149.459 81.198 149.063 81.396 148.865C82.1881 147.479 83.7723 146.093 84.5644 144.509C84.9604 143.717 85.5545 142.925 85.9505 141.935C86.1485 141.341 86.3465 140.152 86.7426 139.558C87.1386 138.766 87.9307 138.568 88.7228 138.37C90.1089 138.172 91.099 140.152 92.6832 140.945C93.2772 141.341 96.4455 142.331 97.4356 142.529C99.0198 142.925 100.604 143.123 102.188 143.519C102.98 143.717 103.772 143.717 104.762 143.915C105.554 143.915 108.525 144.113 108.525 144.311C107.139 145.103 106.149 147.083 105.554 148.667C104.96 150.251 104.564 152.034 103.97 153.42C103.178 155.004 101.594 155.796 101.792 157.776C101.792 158.568 101.99 159.36 101.792 160.152C101.594 161.143 101.198 161.737 101 162.727C100.604 163.915 100.208 167.677 99.8119 168.667L102.98 168.271C103.376 167.479 103.574 163.915 103.772 163.519C104.366 161.737 105.158 160.35 106.347 158.964C107.535 157.578 107.535 155.994 108.129 154.41C108.921 152.628 109.911 151.44 110.901 149.855C112.683 147.083 113.871 143.321 117.436 142.529C117.832 142.529 120.01 144.113 121 145.103C122.188 146.291 123.376 147.479 124.168 149.063C125.554 152.034 126.941 156.39 127.337 158.568C127.535 159.954 127.733 159.954 128.723 161.143C129.119 161.539 129.911 163.123 130.307 163.717C130.505 164.311 131.099 165.697 131.297 166.489C131.495 166.885 132.089 168.271 132.485 169.459H135.455C134.267 166.093 133.277 162.727 132.881 159.36Z" fill="white"/>
<path d="M131.297 166.291C130.901 165.499 130.505 164.113 130.307 163.519C130.109 162.925 129.119 161.34 128.723 160.944C127.733 159.954 127.535 159.756 127.337 158.37C126.941 155.994 125.555 151.637 124.168 148.865C123.376 147.281 122.188 146.093 121 144.905C120.01 143.915 117.832 142.331 117.436 142.331C113.673 143.123 112.683 146.687 110.901 149.657C109.911 151.241 108.921 152.628 108.129 154.212C107.337 155.796 107.535 157.578 106.347 158.766C105.158 160.152 104.366 161.538 103.772 163.321C103.574 163.717 103.376 167.281 102.98 168.073L108.525 167.677C113.673 168.073 112.089 170.053 120.208 169.657L132.881 169.261C132.089 168.073 131.495 166.687 131.297 166.291Z" fill="url(#paint0_linear_307_1350)"/>
<path d="M168.129 82.7267H93.4752C86.5446 82.7267 81 88.4693 81 95.4V122.925C82.7822 122.133 85.3564 118.37 86.1485 117.38C87.5347 115.796 87.7327 113.618 88.5248 112.43C90.1089 109.459 90.505 107.479 94.0693 107.479C95.8515 107.479 96.4455 107.875 97.6337 109.459C98.4257 110.449 99.8119 112.43 100.406 113.618C101.198 115.202 102.386 117.182 102.98 117.578C103.376 117.974 103.772 118.172 104.168 118.172C104.762 118.37 105.158 117.974 105.554 117.578C106.149 117.182 106.347 116.39 106.743 115.202C107.337 113.618 108.129 111.638 108.525 111.044C109.317 109.855 109.515 108.469 110.307 107.875C111.495 106.885 112.881 106.885 113.475 106.687C115.851 106.291 116.842 107.875 118.03 108.865C118.822 109.459 119.812 110.845 120.604 112.628C121.198 114.014 121.99 115.4 122.188 116.192C122.386 116.984 123.178 118.172 123.574 119.756C123.97 121.143 124.96 122.133 125.356 122.925C125.356 122.925 125.95 124.707 129.713 126.093C130.505 126.489 132.089 126.885 133.079 127.281C134.663 127.875 136.248 127.875 138.228 127.479C139.614 127.479 140.406 125.499 141 123.915C141.396 122.925 141.792 120.152 141.99 119.36C142.188 118.568 141.594 117.974 142.188 117.38C142.782 116.588 142.98 116.588 143.376 115.598C143.97 113.42 148.129 113.222 150.307 113.222C152.089 113.222 151.891 115.004 155.059 114.41C156.842 114.014 158.624 114.608 160.604 115.202C162.188 115.598 163.772 116.192 164.564 117.182C165.158 117.776 166.545 121.341 165.158 121.539C165.356 121.737 165.356 121.935 165.752 122.133C165.356 123.519 163.97 122.529 163.178 122.331C162.188 122.133 161.396 122.331 160.208 122.925C158.426 123.717 155.653 123.717 154.267 124.905C152.881 126.093 152.881 128.469 152.287 129.855C152.287 129.855 150.505 134.41 146.743 136.984C145.752 137.776 143.97 139.36 139.812 139.954C138.03 140.152 136.248 140.35 134.267 140.152C133.277 140.152 132.485 140.152 131.495 139.954C130.901 139.954 129.119 139.954 129.119 140.152L128.921 140.746C128.921 140.945 128.921 141.341 129.119 141.341C129.119 141.737 129.119 142.133 129.317 142.529C129.317 143.321 129.317 144.113 129.317 144.905C129.317 146.489 129.911 148.073 130.109 149.657C130.109 151.44 131.099 153.42 131.891 155.004C132.287 155.598 132.683 155.598 132.881 156.39C133.079 157.182 132.881 157.974 133.079 158.964C133.475 162.331 134.465 165.697 136.05 168.865C137.832 168.469 139.812 167.875 142.188 167.479C146.545 166.885 152.683 167.083 156.644 166.885C166.545 165.895 172.089 171.044 181 168.865V95.4C180.802 88.4693 175.257 82.7267 168.129 82.7267Z" fill="url(#paint1_linear_307_1350)"/>
<path d="M103.97 153.42C104.762 151.836 105.158 150.251 105.554 148.667C106.149 147.083 106.941 145.103 108.525 144.311C108.327 144.113 105.356 143.915 104.762 143.915C103.97 143.915 103.178 143.717 102.188 143.519C100.604 143.123 98.8218 142.925 97.4356 142.529C96.4455 142.331 93.4752 141.143 92.6832 140.945C91.099 140.152 90.1089 138.172 88.7228 138.37C87.9307 138.568 87.1386 138.766 86.7426 139.558C86.3465 140.152 86.1485 141.341 85.9505 142.133C85.5545 142.925 85.1584 143.915 84.5644 144.707C83.5743 146.291 81.9901 147.677 81.396 149.063C81.198 149.459 81.198 149.657 81 150.053V167.083C81.7921 167.281 82.5842 167.479 83.5743 167.677C90.505 169.459 92.2871 169.657 99.2178 168.865H99.8119C100.406 167.677 100.802 164.113 101 162.925C101.198 162.133 101.594 161.341 101.792 160.35C101.99 159.558 101.792 158.766 101.792 157.974C101.594 155.796 103.178 155.004 103.97 153.42Z" fill="url(#paint2_linear_307_1350)"/>
<defs>
<filter id="filter0_d_307_1350" x="0.723999" y="0.623779" width="260" height="260" filterUnits="userSpaceOnUse" color-interpolation-filters="sRGB">
<feFlood flood-opacity="0" result="BackgroundImageFix"/>
<feColorMatrix in="SourceAlpha" type="matrix" values="0 0 0 0 0 0 0 0 0 0 0 0 0 0 0 0 0 0 127 0" result="hardAlpha"/>
<feOffset dy="4"/>
<feGaussianBlur stdDeviation="20"/>
<feComposite in2="hardAlpha" operator="out"/>
<feColorMatrix type="matrix" values="0 0 0 0 0.0367917 0 0 0 0 0.0348958 0 0 0 0 0.0484375 0 0 0 0.1 0"/>
<feBlend mode="normal" in2="BackgroundImageFix" result="effect1_dropShadow_307_1350"/>
<feBlend mode="normal" in="SourceGraphic" in2="effect1_dropShadow_307_1350" result="shape"/>
</filter>
<linearGradient id="paint0_linear_307_1350" x1="117.608" y1="142.39" x2="117.608" y2="169.708" gradientUnits="userSpaceOnUse">
<stop stop-color="#F29100"/>
<stop offset="1" stop-color="#EC670F"/>
</linearGradient>
<linearGradient id="paint1_linear_307_1350" x1="130.885" y1="82.7673" x2="130.885" y2="169.761" gradientUnits="userSpaceOnUse">
<stop stop-color="#F29100"/>
<stop offset="1" stop-color="#EC670F"/>
</linearGradient>
<linearGradient id="paint2_linear_307_1350" x1="94.7537" y1="138.321" x2="94.7537" y2="169.16" gradientUnits="userSpaceOnUse">
<stop stop-color="#F29100"/>
<stop offset="1" stop-color="#EC670F"/>
</linearGradient>
</defs>
</svg>
