<svg width="261" height="261" viewBox="0 0 261 261" fill="none" xmlns="http://www.w3.org/2000/svg">
<g filter="url(#filter0_d_307_1352)">
<rect x="40.5524" y="36.6238" width="180" height="180" rx="32" fill="#1D1F23"/>
<rect x="41.0524" y="37.1238" width="179" height="179" rx="31.5" stroke="black"/>
</g>
<path d="M139.773 129.554C139.773 129.554 161.206 117.544 161.576 117.729C159.527 109.726 154.391 102.861 147.292 98.6358C140.193 94.411 131.709 93.1709 123.698 95.1869C116.161 97.0898 109.625 101.777 105.405 108.306C105.59 108.306 139.773 129.554 139.773 129.554Z" fill="#0364B8"/>
<path d="M118.894 112.001C114.945 109.584 110.405 108.305 105.775 108.306H105.405C98.7911 108.408 92.4879 111.131 87.8802 115.877C83.2725 120.624 80.7371 127.005 80.8309 133.619C80.9113 138.632 82.4524 143.512 85.2654 147.662L119.633 144.151L139.773 124.75L118.894 112.001Z" fill="#0F78D4"/>
<path d="M161.76 117.729H160.467C157.73 117.709 155.021 118.276 152.522 119.392L139.957 124.565L153.63 139.717L178.39 147.477C179.661 145.125 180.455 142.546 180.725 139.886C180.995 137.227 180.736 134.54 179.963 131.981C179.19 129.422 177.919 127.041 176.221 124.975C174.524 122.91 172.435 121.201 170.075 119.946C167.474 118.674 164.65 117.92 161.76 117.729Z" fill="#1490DF"/>
<path d="M160.467 136.945L155.293 133.804L143.468 126.783L139.773 124.565L130.349 128.63L112.057 136.391L103.742 139.716L85.2654 147.477C87.5759 150.775 90.6448 153.47 94.2139 155.335C97.7831 157.2 101.748 158.18 105.775 158.194H160.282C163.955 158.173 167.555 157.168 170.707 155.283C173.86 153.398 176.449 150.703 178.205 147.477L160.467 136.945Z" fill="#28A8EA"/>
<defs>
<filter id="filter0_d_307_1352" x="0.552368" y="0.623779" width="260" height="260" filterUnits="userSpaceOnUse" color-interpolation-filters="sRGB">
<feFlood flood-opacity="0" result="BackgroundImageFix"/>
<feColorMatrix in="SourceAlpha" type="matrix" values="0 0 0 0 0 0 0 0 0 0 0 0 0 0 0 0 0 0 127 0" result="hardAlpha"/>
<feOffset dy="4"/>
<feGaussianBlur stdDeviation="20"/>
<feComposite in2="hardAlpha" operator="out"/>
<feColorMatrix type="matrix" values="0 0 0 0 0.0367917 0 0 0 0 0.0348958 0 0 0 0 0.0484375 0 0 0 0.1 0"/>
<feBlend mode="normal" in2="BackgroundImageFix" result="effect1_dropShadow_307_1352"/>
<feBlend mode="normal" in="SourceGraphic" in2="effect1_dropShadow_307_1352" result="shape"/>
</filter>
</defs>
</svg>
