<svg width="261" height="261" viewBox="0 0 261 261" fill="none" xmlns="http://www.w3.org/2000/svg">
<g filter="url(#filter0_d_307_1357)">
<rect x="40.724" y="36.8418" width="180" height="180" rx="32" fill="#1D1F23"/>
<rect x="41.224" y="37.3418" width="179" height="179" rx="31.5" stroke="black"/>
</g>
<path fill-rule="evenodd" clip-rule="evenodd" d="M139.417 89.1121C150.659 89.1082 161.901 89.074 173.143 89.1214C179.826 89.1488 181.711 91.3819 180.27 97.9821C176.051 117.312 171.737 136.622 167.365 155.918C165.982 162.017 162.806 164.515 156.39 164.534C133.906 164.601 111.421 164.609 88.9377 164.531C81.5886 164.506 79.6554 162.016 81.2388 155.052C85.535 136.137 89.8542 117.228 94.2081 98.3261C95.8667 91.123 98.3593 89.1454 105.69 89.1244C116.932 89.0926 128.175 89.116 139.417 89.1121Z" fill="#E0EAF5"/>
<path fill-rule="evenodd" clip-rule="evenodd" d="M122.428 162.287C111.184 162.283 99.9406 162.334 88.6978 162.261C82.9965 162.224 81.9598 160.878 83.2432 155.302C87.5942 136.39 92.0854 117.511 96.3396 98.5777C97.4803 93.4998 99.9411 91.2554 105.382 91.3058C127.866 91.5144 150.355 91.3727 172.841 91.3957C178.48 91.401 179.427 92.6072 178.161 98.3266C174.051 116.895 169.915 135.457 165.706 154.003C164.131 160.944 162.317 162.269 155.015 162.285C144.152 162.308 133.29 162.291 122.428 162.287Z" fill="#2671BE"/>
<path fill-rule="evenodd" clip-rule="evenodd" d="M131.995 125.225C131.241 124.34 130.414 123.322 129.537 122.349C124.567 116.829 119.641 111.267 114.583 105.829C112.268 103.34 111.53 100.924 114.31 98.4672C117.057 96.0391 119.756 96.2541 122.276 99.0476C129.294 106.825 136.304 114.611 143.438 122.281C146.102 125.146 145.481 127.093 142.547 129.216C131.287 137.366 120.09 145.605 108.905 153.86C106.391 155.716 103.995 156.18 101.964 153.439C99.7233 150.415 101.796 148.617 104.12 146.924C112.432 140.87 120.727 134.794 128.987 128.669C130.138 127.816 131.789 127.319 131.995 125.225Z" fill="#FDFDFE"/>
<path fill-rule="evenodd" clip-rule="evenodd" d="M135.555 154.473C132.528 154.473 129.497 154.577 126.476 154.44C124.067 154.331 122.617 152.984 122.647 150.446C122.677 148.046 123.886 146.242 126.293 146.177C132.909 146 139.535 146.038 146.153 146.168C148.256 146.209 149.809 147.579 149.796 149.771C149.781 152.285 148.458 154.232 145.766 154.395C142.373 154.6 138.96 154.445 135.555 154.445C135.555 154.454 135.555 154.463 135.555 154.473Z" fill="#FCFDFD"/>
<defs>
<filter id="filter0_d_307_1357" x="0.723999" y="0.841797" width="260" height="260" filterUnits="userSpaceOnUse" color-interpolation-filters="sRGB">
<feFlood flood-opacity="0" result="BackgroundImageFix"/>
<feColorMatrix in="SourceAlpha" type="matrix" values="0 0 0 0 0 0 0 0 0 0 0 0 0 0 0 0 0 0 127 0" result="hardAlpha"/>
<feOffset dy="4"/>
<feGaussianBlur stdDeviation="20"/>
<feComposite in2="hardAlpha" operator="out"/>
<feColorMatrix type="matrix" values="0 0 0 0 0.0367917 0 0 0 0 0.0348958 0 0 0 0 0.0484375 0 0 0 0.1 0"/>
<feBlend mode="normal" in2="BackgroundImageFix" result="effect1_dropShadow_307_1357"/>
<feBlend mode="normal" in="SourceGraphic" in2="effect1_dropShadow_307_1357" result="shape"/>
</filter>
</defs>
</svg>
