<svg width="261" height="261" viewBox="0 0 261 261" fill="none" xmlns="http://www.w3.org/2000/svg">
<g filter="url(#filter0_d_301_8866)">
<rect x="40.724" y="36.4058" width="180" height="180" rx="32" fill="#1D1F23"/>
<rect x="41.224" y="36.9058" width="179" height="179" rx="31.5" stroke="black"/>
</g>
<path fill-rule="evenodd" clip-rule="evenodd" d="M90.7739 144.639C89.7565 143.035 89.7412 140.991 90.7342 139.371L128.126 78.3772C130.206 74.9848 135.228 75.2814 136.893 78.8951L171.053 152.994C172.32 155.744 170.861 158.978 167.961 159.849L114.824 175.79C112.686 176.431 110.382 175.571 109.187 173.686L90.7739 144.639ZM132.44 96.2112C132.8 94.4169 135.259 94.1582 135.985 95.8381L159.547 150.36C159.991 151.387 159.439 152.571 158.367 152.891L121.654 163.85C120.304 164.253 119.012 163.074 119.289 161.693L132.44 96.2112Z" fill="white"/>
<defs>
<filter id="filter0_d_301_8866" x="0.723999" y="0.405762" width="260" height="260" filterUnits="userSpaceOnUse" color-interpolation-filters="sRGB">
<feFlood flood-opacity="0" result="BackgroundImageFix"/>
<feColorMatrix in="SourceAlpha" type="matrix" values="0 0 0 0 0 0 0 0 0 0 0 0 0 0 0 0 0 0 127 0" result="hardAlpha"/>
<feOffset dy="4"/>
<feGaussianBlur stdDeviation="20"/>
<feComposite in2="hardAlpha" operator="out"/>
<feColorMatrix type="matrix" values="0 0 0 0 0.0367917 0 0 0 0 0.0348958 0 0 0 0 0.0484375 0 0 0 0.1 0"/>
<feBlend mode="normal" in2="BackgroundImageFix" result="effect1_dropShadow_301_8866"/>
<feBlend mode="normal" in="SourceGraphic" in2="effect1_dropShadow_301_8866" result="shape"/>
</filter>
</defs>
</svg>
