<svg width="261" height="261" viewBox="0 0 261 261" fill="none" xmlns="http://www.w3.org/2000/svg">
<g filter="url(#filter0_d_301_8860)">
<rect x="40.5895" y="36.8909" width="180" height="180" rx="32" fill="#1D1F23"/>
<rect x="41.0895" y="37.3909" width="179" height="179" rx="31.5" stroke="black"/>
</g>
<path d="M168.042 139.589V144.16H176.302C177.994 144.16 180.899 142.923 181 139.462V137.694C181 134.739 178.575 132.996 176.302 132.996H172.185V130.874H180.343V126.277H172.513C170.492 126.277 167.79 127.944 167.79 131.051V132.642C167.79 135.749 170.467 137.34 172.513 137.34C178.196 137.366 171.149 137.34 176.403 137.34V139.563L168.042 139.589ZM123.789 138.477C123.789 138.477 128.209 138.098 128.209 132.39C128.209 126.681 122.854 126.151 122.854 126.151H113.205V144.16H118.055V139.816L122.248 144.16H129.421L123.789 138.477ZM121.919 134.789H118.055V130.672H121.945C121.945 130.672 123.031 131.076 123.031 132.718C123.031 134.36 121.919 134.789 121.919 134.789ZM140.182 126.277H135.256C131.745 126.277 130.558 129.46 130.558 130.975V144.16H135.483V141.003H140.106V144.16H144.88V130.975C144.88 127.136 141.394 126.277 140.182 126.277ZM140.106 135.901H135.458V131.531C135.458 131.531 135.458 130.546 136.999 130.546H138.691C140.055 130.546 140.081 131.531 140.081 131.531V135.901H140.106ZM147.128 126.277H152.255V144.16H147.128V126.277ZM159.454 139.538V126.277H154.352V144.16H166.35V139.538H159.454Z" fill="#CC0000"/>
<path d="M82.7681 144.16H102.723C102.723 144.16 98.9085 126.757 111.538 119.71C114.291 118.371 123.056 113.37 137.403 123.979C137.858 123.6 138.287 123.297 138.287 123.297C138.287 123.297 125.153 110.187 110.528 111.652C103.177 112.309 94.1346 119.003 88.8302 127.843C83.5258 136.684 82.7681 144.16 82.7681 144.16Z" fill="#CC0000"/>
<path d="M82.7681 144.16H102.723C102.723 144.16 98.9085 126.757 111.538 119.71C114.291 118.371 123.056 113.37 137.403 123.979C137.858 123.6 138.287 123.297 138.287 123.297C138.287 123.297 125.153 110.187 110.528 111.652C103.177 112.309 94.1346 119.003 88.8302 127.843C83.5258 136.684 82.7681 144.16 82.7681 144.16Z" fill="#CC0000"/>
<path d="M82.7681 144.16H102.723C102.723 144.16 98.9085 126.757 111.538 119.71C114.291 118.371 123.056 113.37 137.403 123.979C137.858 123.6 138.287 123.297 138.287 123.297C138.287 123.297 125.153 110.187 110.528 111.652C103.152 112.309 94.1093 119.003 88.8049 127.843C83.5006 136.684 82.7681 144.16 82.7681 144.16ZM124.344 113.067L124.445 111.374C124.218 111.248 123.586 110.945 121.995 110.49L121.894 112.157C122.728 112.435 123.536 112.738 124.344 113.067Z" fill="#CC0000"/>
<path d="M121.945 118.422L121.844 120.013C122.677 120.038 123.511 120.139 124.344 120.316L124.445 118.75C123.587 118.573 122.753 118.472 121.945 118.422ZM112.599 110.541H112.851L112.346 109C111.563 109 110.755 109.051 109.921 109.152L110.401 110.642C111.134 110.566 111.866 110.541 112.599 110.541ZM113.811 119.836L114.392 121.579C115.125 121.225 115.857 120.922 116.59 120.695L116.034 119.028C115.175 119.28 114.443 119.558 113.811 119.836ZM102.344 113.193L101.207 111.45C100.576 111.778 99.9189 112.132 99.2369 112.536L100.399 114.304C101.056 113.9 101.687 113.521 102.344 113.193ZM107.522 124.559L108.734 126.378C109.164 125.747 109.669 125.166 110.225 124.585L109.088 122.867C108.507 123.398 107.977 123.979 107.522 124.559ZM103.859 132.693L105.905 134.309C106.006 133.324 106.183 132.339 106.436 131.354L104.617 129.914C104.289 130.849 104.061 131.784 103.859 132.693ZM92.7959 120.695L91.0025 119.129C90.3458 119.76 89.7143 120.392 89.1334 121.023L91.0783 122.69C91.6087 122.008 92.1897 121.326 92.7959 120.695ZM85.1677 131.986L82.2629 130.925C81.783 132.011 81.2526 133.274 81 133.956L83.9048 135.017C84.2331 134.158 84.7636 132.92 85.1677 131.986ZM103.48 139.109C103.531 140.447 103.657 141.533 103.784 142.291L106.815 143.377C106.587 142.392 106.36 141.281 106.208 140.094L103.48 139.109Z" fill="#CC0000"/>
<defs>
<filter id="filter0_d_301_8860" x="0.589478" y="0.890869" width="260" height="260" filterUnits="userSpaceOnUse" color-interpolation-filters="sRGB">
<feFlood flood-opacity="0" result="BackgroundImageFix"/>
<feColorMatrix in="SourceAlpha" type="matrix" values="0 0 0 0 0 0 0 0 0 0 0 0 0 0 0 0 0 0 127 0" result="hardAlpha"/>
<feOffset dy="4"/>
<feGaussianBlur stdDeviation="20"/>
<feComposite in2="hardAlpha" operator="out"/>
<feColorMatrix type="matrix" values="0 0 0 0 0.0367917 0 0 0 0 0.0348958 0 0 0 0 0.0484375 0 0 0 0.1 0"/>
<feBlend mode="normal" in2="BackgroundImageFix" result="effect1_dropShadow_301_8860"/>
<feBlend mode="normal" in="SourceGraphic" in2="effect1_dropShadow_301_8860" result="shape"/>
</filter>
</defs>
</svg>
