<svg width="261" height="261" viewBox="0 0 261 261" fill="none" xmlns="http://www.w3.org/2000/svg">
<g filter="url(#filter0_d_307_1343)">
<rect x="40.724" y="36.8418" width="180" height="180" rx="32" fill="#1D1F23"/>
<rect x="41.224" y="37.3418" width="179" height="179" rx="31.5" stroke="black"/>
</g>
<path d="M147.427 132.615C154 132.615 163.508 131.26 163.508 123.443C163.528 122.839 163.473 122.236 163.345 121.646L159.432 104.646C158.528 100.905 157.735 99.2085 151.168 95.9251C146.072 93.3193 134.971 89.0167 131.688 89.0167C128.63 89.0167 127.743 92.9568 124.097 92.9568C120.587 92.9568 117.982 90.0149 114.698 90.0149C111.546 90.0149 109.492 92.1636 107.906 96.5817C107.906 96.5817 103.487 109.043 102.92 110.85C102.83 111.182 102.791 111.526 102.804 111.869C102.804 116.713 121.875 132.594 147.427 132.594M164.517 126.616C165.426 130.918 165.426 131.37 165.426 131.938C165.426 139.293 157.157 143.374 146.287 143.374C121.722 143.39 100.204 128.996 100.204 119.482C100.202 118.157 100.472 116.847 100.997 115.631C92.1608 116.072 80.724 117.648 80.724 127.745C80.724 144.283 119.91 164.667 150.937 164.667C174.725 164.667 180.724 153.908 180.724 145.413C180.724 138.73 174.945 131.144 164.528 126.616" fill="#EE0000"/>
<path d="M164.517 126.616C165.426 130.918 165.426 131.37 165.426 131.938C165.426 139.293 157.157 143.375 146.287 143.375C121.722 143.39 100.204 128.996 100.204 119.482C100.203 118.157 100.472 116.847 100.997 115.631L102.92 110.871C102.832 111.196 102.793 111.533 102.804 111.869C102.804 116.713 121.875 132.594 147.427 132.594C154 132.594 163.508 131.239 163.508 123.422C163.528 122.818 163.473 122.215 163.346 121.625L164.517 126.616Z" fill="black"/>
<defs>
<filter id="filter0_d_307_1343" x="0.723999" y="0.841797" width="260" height="260" filterUnits="userSpaceOnUse" color-interpolation-filters="sRGB">
<feFlood flood-opacity="0" result="BackgroundImageFix"/>
<feColorMatrix in="SourceAlpha" type="matrix" values="0 0 0 0 0 0 0 0 0 0 0 0 0 0 0 0 0 0 127 0" result="hardAlpha"/>
<feOffset dy="4"/>
<feGaussianBlur stdDeviation="20"/>
<feComposite in2="hardAlpha" operator="out"/>
<feColorMatrix type="matrix" values="0 0 0 0 0.0367917 0 0 0 0 0.0348958 0 0 0 0 0.0484375 0 0 0 0.1 0"/>
<feBlend mode="normal" in2="BackgroundImageFix" result="effect1_dropShadow_307_1343"/>
<feBlend mode="normal" in="SourceGraphic" in2="effect1_dropShadow_307_1343" result="shape"/>
</filter>
</defs>
</svg>
