<svg width="261" height="261" viewBox="0 0 261 261" fill="none" xmlns="http://www.w3.org/2000/svg">
<g filter="url(#filter0_d_307_1342)">
<rect x="40.724" y="36.6238" width="180" height="180" rx="32" fill="#1D1F23"/>
<rect x="41.224" y="37.1238" width="179" height="179" rx="31.5" stroke="black"/>
</g>
<path fill-rule="evenodd" clip-rule="evenodd" d="M99.5529 113.429C100.425 114.631 107.781 116.899 118.752 119.261C129.724 121.364 141.134 129.667 150.008 127.107C156.01 125.372 162.521 109.911 162.521 107.615V107.379C162.521 105.776 161.319 104.489 159.278 103.419C150.908 99.1423 149.324 97.5675 146.222 98.4209C130.115 102.867 101.679 100.594 99.5529 113.429Z" fill="#380D09"/>
<path fill-rule="evenodd" clip-rule="evenodd" d="M99.5529 144.821C100.425 146.042 107.781 148.291 118.752 150.658C131.011 152.893 141.672 160.178 150.55 157.613C156.552 155.878 162.521 141.308 162.521 139.007V138.781C162.521 137.183 161.319 135.891 159.278 134.825C152.893 131.43 144.458 127.691 141.361 128.545C125.226 132.982 103.66 133.958 99.5529 144.821Z" fill="#380D09"/>
<path fill-rule="evenodd" clip-rule="evenodd" d="M99.4633 120.176V120.402C99.4585 120.327 99.4585 120.251 99.4633 120.176Z" fill="#555555"/>
<path fill-rule="evenodd" clip-rule="evenodd" d="M150.527 82.2862C135.693 86.5721 112.161 88.9909 99.4822 88.9909V113.202C99.4862 113.286 99.5177 113.365 99.5718 113.429C108.224 113.429 134.934 110.6 151.05 106.168C153.861 105.452 156.616 104.537 159.296 103.428C161.267 102.542 162.54 101.608 162.54 100.637V76.218C162.521 78.5189 156.529 80.5558 150.527 82.2862Z" fill="#DE3423"/>
<path fill-rule="evenodd" clip-rule="evenodd" d="M150.527 113.683C141.648 116.244 129.667 118.148 118.752 119.261C111.425 120.011 104.579 120.402 99.4822 120.402V144.595C99.4862 144.678 99.5177 144.758 99.5718 144.821C108.224 144.821 134.934 141.992 151.05 137.565C153.86 136.847 156.616 135.932 159.296 134.825C161.267 133.934 162.54 133.005 162.54 132.034V107.615C162.521 109.911 156.529 111.948 150.527 113.683Z" fill="#DE3423"/>
<path fill-rule="evenodd" clip-rule="evenodd" d="M150.527 145.099C141.648 147.659 129.667 149.56 118.752 150.677C111.416 151.427 104.56 151.818 99.4633 151.818V176.218C108.026 176.218 134.873 173.413 151.031 168.962C156.986 167.321 162.521 165.454 162.521 163.426V139.007C162.521 141.327 156.529 143.345 150.527 145.099Z" fill="#DE3423"/>
<defs>
<filter id="filter0_d_307_1342" x="0.723999" y="0.623779" width="260" height="260" filterUnits="userSpaceOnUse" color-interpolation-filters="sRGB">
<feFlood flood-opacity="0" result="BackgroundImageFix"/>
<feColorMatrix in="SourceAlpha" type="matrix" values="0 0 0 0 0 0 0 0 0 0 0 0 0 0 0 0 0 0 127 0" result="hardAlpha"/>
<feOffset dy="4"/>
<feGaussianBlur stdDeviation="20"/>
<feComposite in2="hardAlpha" operator="out"/>
<feColorMatrix type="matrix" values="0 0 0 0 0.0367917 0 0 0 0 0.0348958 0 0 0 0 0.0484375 0 0 0 0.1 0"/>
<feBlend mode="normal" in2="BackgroundImageFix" result="effect1_dropShadow_307_1342"/>
<feBlend mode="normal" in="SourceGraphic" in2="effect1_dropShadow_307_1342" result="shape"/>
</filter>
</defs>
</svg>
