<svg width="260" height="261" viewBox="0 0 260 261" fill="none" xmlns="http://www.w3.org/2000/svg">
<g filter="url(#filter0_d_301_8882)">
<rect x="40.0001" y="36.8909" width="180" height="180" rx="32" fill="#1D1F23"/>
<rect x="40.5001" y="37.3909" width="179" height="179" rx="31.5" stroke="black"/>
</g>
<path opacity="0.45" d="M145.92 76.4871L129.844 105.06H97.7128L113.777 76.4871H145.92Z" fill="white"/>
<path opacity="0.6" d="M129.844 105.06H161.984L145.922 76.4871H113.777L129.844 105.06Z" fill="white"/>
<path opacity="0.8" d="M113.777 133.621L129.844 105.06L113.777 76.4871L97.7128 105.06L113.777 133.621Z" fill="white"/>
<path opacity="0.45" d="M113.934 176.483L130.01 147.91H162.153L146.077 176.483H113.934Z" fill="white"/>
<path opacity="0.6" d="M130.01 147.91H97.8703L113.934 176.483H146.077L130.01 147.91Z" fill="white"/>
<path opacity="0.8" d="M146.077 119.347L130.01 147.91L146.077 176.483L162.153 147.91L146.077 119.347Z" fill="white"/>
<defs>
<filter id="filter0_d_301_8882" x="0.0001297" y="0.890869" width="260" height="260" filterUnits="userSpaceOnUse" color-interpolation-filters="sRGB">
<feFlood flood-opacity="0" result="BackgroundImageFix"/>
<feColorMatrix in="SourceAlpha" type="matrix" values="0 0 0 0 0 0 0 0 0 0 0 0 0 0 0 0 0 0 127 0" result="hardAlpha"/>
<feOffset dy="4"/>
<feGaussianBlur stdDeviation="20"/>
<feComposite in2="hardAlpha" operator="out"/>
<feColorMatrix type="matrix" values="0 0 0 0 0.0367917 0 0 0 0 0.0348958 0 0 0 0 0.0484375 0 0 0 0.1 0"/>
<feBlend mode="normal" in2="BackgroundImageFix" result="effect1_dropShadow_301_8882"/>
<feBlend mode="normal" in="SourceGraphic" in2="effect1_dropShadow_301_8882" result="shape"/>
</filter>
</defs>
</svg>
