<svg width="261" height="261" viewBox="0 0 261 261" fill="none" xmlns="http://www.w3.org/2000/svg">
<g filter="url(#filter0_d_301_8922)">
<rect x="40.724" y="36.4058" width="180" height="180" rx="32" fill="#1D1F23"/>
<rect x="41.224" y="36.9058" width="179" height="179" rx="31.5" stroke="black"/>
</g>
<path fill-rule="evenodd" clip-rule="evenodd" d="M101.121 88.1212H161.727V148.727H101.121V88.1212Z" fill="white"/>
<path d="M138.327 122.1H118.736V131.318H137.858C138.988 131.318 140.024 130.858 140.873 130.121C141.624 129.382 142.097 128.276 142.097 126.894C142.123 125.704 141.759 124.539 141.061 123.576C140.306 122.651 139.458 122.1 138.327 122.1ZM138.988 110.942C139.836 110.391 140.212 109.191 140.212 107.624C140.212 106.242 139.836 105.227 139.176 104.582C138.494 103.996 137.627 103.669 136.727 103.661H118.733V111.958H136.352C137.291 111.958 138.233 111.497 138.988 110.942Z" fill="#0AB3AF"/>
<path d="M170.142 76H93.4C90.9545 76 89 77.9485 89 80.2879V156.894C89 159.236 90.9545 160.697 93.303 160.697H104.642V176L118.721 160.794H170.145C172.491 160.794 173.958 159.333 173.958 156.897V80.3848C173.958 78.0455 172.491 76.097 170.048 76.097L170.139 76H170.142ZM157.242 138.085C156.235 139.854 154.787 141.332 153.039 142.376C151.182 143.542 149.13 144.618 146.782 145.103C144.436 145.688 141.894 146.176 139.255 146.176H104.642V91.5939H143.945C145.9 91.5939 147.561 91.9848 149.127 92.8606C150.591 93.6424 151.961 94.7121 153.036 95.9818C155.226 98.642 156.404 101.991 156.361 105.436C156.361 107.97 155.676 110.406 154.403 112.745C153.084 115.1 151.022 116.951 148.539 118.009C151.667 118.885 154.112 120.445 155.967 122.685C157.727 125.024 158.609 128.048 158.609 131.848C158.609 134.285 158.118 136.333 157.142 138.085H157.239H157.242Z" fill="#0AB3AF"/>
<defs>
<filter id="filter0_d_301_8922" x="0.723999" y="0.405762" width="260" height="260" filterUnits="userSpaceOnUse" color-interpolation-filters="sRGB">
<feFlood flood-opacity="0" result="BackgroundImageFix"/>
<feColorMatrix in="SourceAlpha" type="matrix" values="0 0 0 0 0 0 0 0 0 0 0 0 0 0 0 0 0 0 127 0" result="hardAlpha"/>
<feOffset dy="4"/>
<feGaussianBlur stdDeviation="20"/>
<feComposite in2="hardAlpha" operator="out"/>
<feColorMatrix type="matrix" values="0 0 0 0 0.0367917 0 0 0 0 0.0348958 0 0 0 0 0.0484375 0 0 0 0.1 0"/>
<feBlend mode="normal" in2="BackgroundImageFix" result="effect1_dropShadow_301_8922"/>
<feBlend mode="normal" in="SourceGraphic" in2="effect1_dropShadow_301_8922" result="shape"/>
</filter>
</defs>
</svg>
