<svg width="261" height="261" viewBox="0 0 261 261" fill="none" xmlns="http://www.w3.org/2000/svg">
<g filter="url(#filter0_d_301_8842)">
<rect x="40.724" y="36.4058" width="180" height="180" rx="32" fill="#1D1F23"/>
<rect x="41.224" y="36.9058" width="179" height="179" rx="31.5" stroke="black"/>
</g>
<mask id="mask0_301_8842" style="mask-type:luminance" maskUnits="userSpaceOnUse" x="81" y="76" width="100" height="100">
<path d="M181 76H81V176H181V76Z" fill="white"/>
</mask>
<g mask="url(#mask0_301_8842)">
<path d="M151.703 76H110.297C94.1166 76 81 89.1166 81 105.297V146.703C81 162.884 94.1166 176 110.297 176H151.703C167.884 176 181 162.884 181 146.703V105.297C181 89.1166 167.884 76 151.703 76Z" fill="#398CCB"/>
<path fill-rule="evenodd" clip-rule="evenodd" d="M130.892 90.6484L144.774 98.6578V103.062L161.577 112.765V129.364L166.084 131.966V147.994L152.211 156.003L146.052 152.441L131.077 161.088L116.191 152.491L110.118 156.003L96.2449 147.98V131.966L100.576 129.465V112.765L117.019 103.273L117.028 103.273V98.6578L130.892 90.6484ZM144.774 107.226V114.676L130.901 122.686L117.028 114.676V107.433L117.019 107.433L104.182 114.848V127.384L110.118 123.957L123.991 131.966V147.98L119.794 150.407L131.077 156.923L142.449 150.358L138.338 147.98V131.966L152.211 123.957L157.971 127.282V114.848L144.774 107.226ZM141.944 145.916V136.14L150.408 141.026V150.802L141.944 145.916ZM162.478 136.126L154.014 141.012V150.802L162.478 145.902V136.126ZM99.8507 145.902V136.126L108.315 141.012V150.788L99.8507 145.902ZM120.386 136.126L111.921 141.012V150.788L120.386 145.902V136.126ZM143.746 133.016L152.211 128.13L160.675 133.016L152.211 137.907L143.746 133.016ZM110.118 128.117L101.654 133.016L110.118 137.893L118.583 133.016L110.118 128.117ZM120.633 112.594V102.818L129.089 107.708V117.48L120.633 112.594ZM141.159 102.818L132.704 107.708V117.475L141.159 112.594V102.818ZM122.436 99.6988L130.892 94.8131L139.356 99.6988L130.892 104.585L122.436 99.6988Z" fill="white"/>
</g>
<defs>
<filter id="filter0_d_301_8842" x="0.723999" y="0.405762" width="260" height="260" filterUnits="userSpaceOnUse" color-interpolation-filters="sRGB">
<feFlood flood-opacity="0" result="BackgroundImageFix"/>
<feColorMatrix in="SourceAlpha" type="matrix" values="0 0 0 0 0 0 0 0 0 0 0 0 0 0 0 0 0 0 127 0" result="hardAlpha"/>
<feOffset dy="4"/>
<feGaussianBlur stdDeviation="20"/>
<feComposite in2="hardAlpha" operator="out"/>
<feColorMatrix type="matrix" values="0 0 0 0 0.0367917 0 0 0 0 0.0348958 0 0 0 0 0.0484375 0 0 0 0.1 0"/>
<feBlend mode="normal" in2="BackgroundImageFix" result="effect1_dropShadow_301_8842"/>
<feBlend mode="normal" in="SourceGraphic" in2="effect1_dropShadow_301_8842" result="shape"/>
</filter>
</defs>
</svg>
