<svg width="261" height="261" viewBox="0 0 261 261" fill="none" xmlns="http://www.w3.org/2000/svg">
<g filter="url(#filter0_d_307_1345)">
<rect x="40.724" y="36.6238" width="180" height="180" rx="32" fill="#1D1F23"/>
<rect x="41.224" y="37.1238" width="179" height="179" rx="31.5" stroke="black"/>
</g>
<path d="M86.6836 124.636C86.6445 125.339 86.625 126.999 86.625 127.722C86.625 152.116 105.785 171.882 129.418 171.882C153.051 171.882 172.211 152.116 172.211 127.722C172.211 126.999 172.191 126.296 172.152 125.573L86.6836 124.636Z" fill="url(#paint0_linear_307_1345)"/>
<path d="M133.422 166.57C154.866 166.57 172.25 149.186 172.25 127.741C172.25 106.297 154.866 88.9133 133.422 88.9133C111.978 88.9133 94.5938 106.297 94.5938 127.741C94.5938 149.186 111.978 166.57 133.422 166.57Z" fill="#007AFF"/>
<path d="M156.078 89.1672C148.969 83.9915 139.672 80.554 130.297 80.554C106.176 80.554 86.6445 100.73 86.6445 125.593H94.6719C95.3945 107.624 110.258 92.8586 128.617 92.8586C136.254 92.8586 143.305 95.3782 148.988 99.6165C151.84 101.511 155.707 100.788 157.68 97.9563C159.652 95.0657 158.949 91.1399 156.078 89.1672Z" fill="url(#paint1_linear_307_1345)"/>
<path opacity="0.5" d="M171.742 133.952L153.812 116.023L142.348 115.046H131.859L130.805 128.679L115.941 113.816L112.328 119.011L113.676 141.374L138.5 166.198C155.512 163.991 169.027 150.769 171.742 133.952Z" fill="url(#paint2_linear_307_1345)"/>
<path d="M129.789 112.39V132.234H129.77C129.77 135.866 126.82 138.816 123.188 138.816C119.555 138.816 116.605 135.866 116.605 132.234V115.769C116.605 113.952 115.121 112.468 113.305 112.468C111.488 112.468 110.004 113.933 110.004 115.769V132.273C110.004 139.538 115.902 145.437 123.188 145.437C130.473 145.437 136.371 139.538 136.371 132.273V119.07H146.254C148.051 119.07 149.516 120.534 149.516 122.331C149.516 124.128 148.051 125.593 146.254 125.593H143.109C141.273 125.593 139.77 127.077 139.77 128.913C139.77 130.71 141.195 132.175 142.992 132.234L150.004 143.835C150.59 144.812 151.645 145.476 152.875 145.476C154.711 145.476 156.215 143.991 156.215 142.156C156.215 141.413 155.961 140.71 155.551 140.163L150.258 131.413C153.734 129.87 156.156 126.394 156.156 122.351C156.156 116.863 151.703 112.429 146.215 112.429L129.789 112.39Z" fill="white"/>
<path d="M152.465 97.6243C154.406 97.6243 155.98 96.0503 155.98 94.1086C155.98 92.167 154.406 90.593 152.465 90.593C150.523 90.593 148.949 92.167 148.949 94.1086C148.949 96.0503 150.523 97.6243 152.465 97.6243Z" fill="white"/>
<path d="M150.492 97.0383C150.492 97.0383 138.363 86.3351 123.012 88.3859C117.191 89.3234 112.523 91.0812 107.992 93.7961C103.461 96.5109 110.023 91.9016 111.977 90.8469C113.949 89.7922 123.129 84.0891 138.383 86.3937C153.637 88.6984 155.316 92.0969 155.316 92.0969L150.492 97.0383Z" fill="white"/>
<defs>
<filter id="filter0_d_307_1345" x="0.723999" y="0.623779" width="260" height="260" filterUnits="userSpaceOnUse" color-interpolation-filters="sRGB">
<feFlood flood-opacity="0" result="BackgroundImageFix"/>
<feColorMatrix in="SourceAlpha" type="matrix" values="0 0 0 0 0 0 0 0 0 0 0 0 0 0 0 0 0 0 127 0" result="hardAlpha"/>
<feOffset dy="4"/>
<feGaussianBlur stdDeviation="20"/>
<feComposite in2="hardAlpha" operator="out"/>
<feColorMatrix type="matrix" values="0 0 0 0 0.0367917 0 0 0 0 0.0348958 0 0 0 0 0.0484375 0 0 0 0.1 0"/>
<feBlend mode="normal" in2="BackgroundImageFix" result="effect1_dropShadow_307_1345"/>
<feBlend mode="normal" in="SourceGraphic" in2="effect1_dropShadow_307_1345" result="shape"/>
</filter>
<linearGradient id="paint0_linear_307_1345" x1="86.625" y1="148.259" x2="172.211" y2="148.259" gradientUnits="userSpaceOnUse">
<stop stop-color="#FF3B30"/>
<stop offset="1" stop-color="#F7951E"/>
</linearGradient>
<linearGradient id="paint1_linear_307_1345" x1="86.6445" y1="103.073" x2="158.797" y2="103.073" gradientUnits="userSpaceOnUse">
<stop stop-color="#FF3B30"/>
<stop offset="1" stop-color="#F7951E"/>
</linearGradient>
<linearGradient id="paint2_linear_307_1345" x1="121.98" y1="116.935" x2="160.904" y2="155.859" gradientUnits="userSpaceOnUse">
<stop/>
<stop offset="1" stop-opacity="0"/>
</linearGradient>
</defs>
</svg>
