<svg width="261" height="261" viewBox="0 0 261 261" fill="none" xmlns="http://www.w3.org/2000/svg">
<g filter="url(#filter0_d_307_1349)">
<rect x="40.724" y="36.6238" width="180" height="180" rx="32" fill="#1D1F23"/>
<rect x="41.224" y="37.1238" width="179" height="179" rx="31.5" stroke="black"/>
</g>
<path d="M131.409 80.4095L85.6108 126.269L131.218 171.938L177.016 126.078L131.409 80.4095Z" fill="#019833" stroke="black" stroke-width="0.267335"/>
<path d="M131.218 80.6006V76.5879L81.4127 126.46H85.6108L131.218 80.6006Z" fill="#66FE98" stroke="black" stroke-width="0.267335"/>
<path d="M131.104 80.6006V76.5879L180.909 126.46H176.711L131.104 80.6006Z" fill="#45FE02" stroke="black" stroke-width="0.267335"/>
<path d="M131.218 172.205V176.218L81.4127 126.346H85.6108L131.218 172.205Z" fill="#017D17" stroke="black" stroke-width="0.267335"/>
<path d="M90.6524 81.6528H122.767L124.723 83.612V89.6246L123.171 91.5162H119.663V121.377L149.888 91.5162H144.896L143.142 89.6246V83.2742L144.761 81.7879H177.28L178.899 83.4093V89.3544L105.36 164.884H96.9943L94.5728 163.484V91.246H90.5175L89.0332 89.7597V83.4093L90.6524 81.6528Z" stroke="black" stroke-width="5.3467"/>
<path d="M131.104 172.205V176.218L180.909 126.346H176.711L131.104 172.205Z" fill="#005D04" stroke="black" stroke-width="0.267335"/>
<path d="M131.084 76.218L81.0909 126.278L130.875 176.129L180.868 126.069L131.084 76.218Z" stroke="black" stroke-width="1.60401"/>
<path d="M123.108 84.709L124.921 83.7536L123.06 81.8905H90.6677L89.0218 83.5386V89.7726L90.8466 91.5998L91.7172 89.7726L90.5723 88.6261V84.2313L91.431 83.4669H122.345L123.108 84.709Z" fill="#FEFEFE" stroke="black" stroke-width="0.267335"/>
<path d="M146.009 83.2744L144.866 84.4197V88.6247L145.868 89.6279H151.161V93.6908L116.146 129.228V89.678H121.965L123.159 88.4826V84.2274L122.057 83.3747H91.4346L90.4327 84.3779V88.725L91.4513 89.7449H96.7777V162.576L97.7795 163.579H103.832L177.208 87.7636V84.4197L176.064 83.2744H146.009Z" stroke="black" stroke-width="0.267335"/>
<path d="M96.7244 89.6246V162.587L97.669 163.668L96.9283 165.081L94.8354 162.992V91.5162L96.7244 89.6246Z" fill="#FEFEFE" stroke="black" stroke-width="0.267335"/>
<path d="M91.4912 89.6246L90.9514 91.3811H94.8645L97.0235 89.6246H91.4912Z" fill="#808080" stroke="black" stroke-width="0.267335"/>
<path d="M145.244 91.5974L146.102 89.8299L144.862 88.6834V84.7663L146.293 83.3331H176.157L177.302 84.8618L178.924 83.7153L177.255 82.0433H145.148L143.55 83.6436V89.9255L145.208 91.49M119.262 121.653L116.143 129.231L151.35 93.8809V89.6771L119.262 121.653Z" fill="#FEFEFE"/>
<path d="M145.244 91.5974L146.102 89.8299L144.862 88.6834V84.7663L146.293 83.3331H176.157L177.302 84.8618L178.924 83.7153L177.255 82.0433H145.148L143.55 83.6436V89.9255L145.208 91.49M119.262 121.653L116.143 129.231L151.35 93.8809V89.6771L119.262 121.653Z" stroke="black" stroke-width="0.267335"/>
<path d="M123.037 84.4903L124.588 83.4769V89.6247L122.8 91.4149H119.326V121.715L116.155 129.213V89.6247H121.957L123.037 88.7464V84.4903Z" fill="#808080" stroke="black" stroke-width="0.267335"/>
<path d="M146.009 83.2744L144.866 84.4197V88.6247L145.868 89.6279H151.161V93.6908L116.146 129.228V89.678H121.965L123.159 88.4826V84.2274L122.057 83.3747H91.4346L90.4327 84.3779V88.725L91.4513 89.7449H96.7777V162.576L97.7795 163.579H103.832L177.208 87.7636V84.4197L176.064 83.2744H146.009Z" fill="#CCCCCC" stroke="black" stroke-width="0.267335"/>
<path d="M177.302 84.5178L178.932 83.5757V89.486L105.017 165.118H97.1693L97.9191 163.626H103.93L177.207 87.8618L177.302 84.5178Z" fill="#808080" stroke="black" stroke-width="0.267335"/>
<path d="M151.204 89.726L149.551 91.4487H145.233L146.245 89.726C146.279 89.726 151.204 89.726 151.204 89.726Z" fill="#808080" stroke="black" stroke-width="0.267335"/>
<path d="M133.578 132.367C133.523 132.379 133.471 132.405 133.428 132.442L132.009 133.663C131.966 133.701 131.935 133.75 131.917 133.805L130.498 137.784C130.477 137.843 130.473 137.906 130.486 137.966C130.499 138.027 130.529 138.083 130.573 138.127L131.658 139.214C131.721 139.274 131.805 139.307 131.892 139.306H136.275C136.362 139.307 136.446 139.274 136.509 139.214L137.652 138.06C137.692 138.021 137.721 137.972 137.736 137.918L138.955 133.73C138.971 133.673 138.972 133.613 138.958 133.555C138.943 133.498 138.913 133.446 138.871 133.404L137.928 132.459C137.865 132.399 137.781 132.366 137.694 132.367H133.645C133.623 132.365 133.601 132.365 133.578 132.367ZM125.547 143.586C125.487 143.599 125.431 143.628 125.387 143.671C125.343 143.714 125.311 143.769 125.296 143.828L124.754 145.985C124.742 146.034 124.741 146.084 124.751 146.133C124.761 146.182 124.783 146.228 124.813 146.267C124.844 146.307 124.883 146.339 124.927 146.361C124.972 146.383 125.021 146.394 125.071 146.395H127.651L121.256 164.678C121.239 164.727 121.235 164.78 121.242 164.831C121.25 164.883 121.27 164.932 121.3 164.974C121.33 165.016 121.369 165.051 121.416 165.075C121.462 165.099 121.513 165.112 121.565 165.113H130.873C130.943 165.114 131.012 165.092 131.069 165.052C131.126 165.011 131.169 164.953 131.191 164.887L131.8 162.922C131.815 162.873 131.818 162.82 131.81 162.769C131.801 162.718 131.78 162.67 131.749 162.629C131.718 162.587 131.678 162.554 131.632 162.53C131.586 162.507 131.534 162.496 131.483 162.496H129.379L135.707 144.021C135.724 143.971 135.728 143.919 135.721 143.867C135.713 143.816 135.693 143.767 135.663 143.725C135.633 143.682 135.593 143.648 135.547 143.623C135.501 143.599 135.45 143.586 135.398 143.586H125.614C125.592 143.584 125.569 143.584 125.547 143.586ZM155.168 143.653C155.096 143.668 155.032 143.706 154.984 143.762L153.047 145.952H149.967L147.913 143.82C147.882 143.789 147.846 143.764 147.806 143.746C147.766 143.729 147.723 143.72 147.679 143.72H140.324C140.256 143.72 140.191 143.741 140.135 143.78C140.08 143.819 140.038 143.873 140.015 143.937L139.339 145.96C139.322 146.009 139.318 146.062 139.325 146.113C139.333 146.165 139.353 146.214 139.383 146.256C139.413 146.299 139.453 146.333 139.499 146.357C139.545 146.381 139.596 146.394 139.648 146.395H141.618L135.49 164.477C135.474 164.526 135.469 164.579 135.477 164.631C135.484 164.682 135.504 164.731 135.534 164.773C135.564 164.816 135.604 164.85 135.65 164.874C135.696 164.898 135.747 164.911 135.799 164.912H143.63C143.698 164.912 143.763 164.891 143.819 164.852C143.874 164.813 143.916 164.758 143.939 164.695L144.54 162.931C144.557 162.881 144.561 162.829 144.554 162.777C144.546 162.726 144.526 162.677 144.496 162.634C144.466 162.592 144.426 162.557 144.38 162.533C144.334 162.509 144.283 162.496 144.231 162.496H142.862L146.769 150.182H153.84L149.382 164.486C149.367 164.535 149.364 164.587 149.373 164.638C149.381 164.689 149.402 164.738 149.433 164.779C149.464 164.821 149.504 164.854 149.55 164.877C149.597 164.9 149.648 164.912 149.699 164.912H157.255C157.319 164.911 157.382 164.892 157.435 164.856C157.489 164.821 157.53 164.77 157.556 164.711L158.232 163.089C158.251 163.04 158.259 162.986 158.253 162.933C158.248 162.88 158.229 162.829 158.2 162.785C158.17 162.74 158.13 162.704 158.083 162.678C158.037 162.653 157.984 162.639 157.931 162.638H156.562L160.536 150.115H167.265L162.74 164.486C162.725 164.535 162.722 164.587 162.73 164.638C162.739 164.689 162.76 164.738 162.791 164.779C162.822 164.821 162.862 164.854 162.908 164.877C162.954 164.9 163.006 164.912 163.057 164.912H171.356C171.422 164.912 171.487 164.893 171.543 164.855C171.598 164.818 171.64 164.765 171.665 164.703L172.341 162.939C172.359 162.889 172.365 162.836 172.358 162.783C172.351 162.731 172.332 162.68 172.302 162.637C172.271 162.593 172.231 162.558 172.184 162.533C172.137 162.509 172.085 162.496 172.032 162.496H170.387L175.388 146.236C175.405 146.186 175.409 146.132 175.4 146.079C175.391 146.027 175.37 145.977 175.338 145.935L173.785 143.845C173.753 143.805 173.713 143.773 173.666 143.751C173.62 143.729 173.569 143.718 173.518 143.72H167.582C167.537 143.719 167.492 143.727 167.451 143.745C167.409 143.762 167.371 143.788 167.34 143.82L165.47 145.877H162.197L160.26 143.753C160.229 143.721 160.191 143.695 160.15 143.678C160.108 143.661 160.063 143.652 160.018 143.653H155.235C155.212 143.651 155.19 143.651 155.168 143.653Z" fill="#CCCCCC" stroke="black" stroke-width="2.13868" stroke-miterlimit="10"/>
<path d="M133.645 132.693L132.226 133.914L130.807 137.893L131.892 138.98H136.275L137.419 137.826L138.638 133.638L137.694 132.693H133.645ZM125.614 143.912L125.071 146.069H128.11L121.565 164.787H130.873L131.483 162.822H128.92L135.398 143.912H125.614ZM155.235 143.979L153.206 146.278H149.833L147.679 144.046H140.324L139.648 146.069H142.077L135.799 164.586H143.63L144.231 162.822H142.411L146.527 149.856H154.291L149.699 164.586H157.255L157.931 162.964H156.111L160.294 149.789H167.716L163.057 164.586H171.356L172.032 162.822H169.936L175.071 146.136L173.518 144.046H167.582L165.62 146.203H162.047L160.018 143.979H155.235Z" fill="#CCCCCC" stroke="black" stroke-width="0.267335" stroke-miterlimit="10"/>
<defs>
<filter id="filter0_d_307_1349" x="0.723999" y="0.623779" width="260" height="260" filterUnits="userSpaceOnUse" color-interpolation-filters="sRGB">
<feFlood flood-opacity="0" result="BackgroundImageFix"/>
<feColorMatrix in="SourceAlpha" type="matrix" values="0 0 0 0 0 0 0 0 0 0 0 0 0 0 0 0 0 0 127 0" result="hardAlpha"/>
<feOffset dy="4"/>
<feGaussianBlur stdDeviation="20"/>
<feComposite in2="hardAlpha" operator="out"/>
<feColorMatrix type="matrix" values="0 0 0 0 0.0367917 0 0 0 0 0.0348958 0 0 0 0 0.0484375 0 0 0 0.1 0"/>
<feBlend mode="normal" in2="BackgroundImageFix" result="effect1_dropShadow_307_1349"/>
<feBlend mode="normal" in="SourceGraphic" in2="effect1_dropShadow_307_1349" result="shape"/>
</filter>
</defs>
</svg>
