<svg width="261" height="261" viewBox="0 0 261 261" fill="none" xmlns="http://www.w3.org/2000/svg">
<g filter="url(#filter0_d_307_1355)">
<rect x="40.724" y="36.6238" width="180" height="180" rx="32" fill="#1D1F23"/>
<rect x="41.224" y="37.1238" width="179" height="179" rx="31.5" stroke="black"/>
</g>
<g clip-path="url(#clip0_307_1355)">
<path d="M131 176.218C158.614 176.218 181 153.832 181 126.218C181 98.6038 158.614 76.218 131 76.218C103.386 76.218 81 98.6038 81 126.218C81 153.832 103.386 176.218 131 176.218Z" fill="#004E8C"/>
<path opacity="0.1" d="M96.3438 90.2805C91.2609 94.8099 87.1566 100.33 84.2824 106.501C81.4082 112.673 79.8247 119.367 79.629 126.172C79.4332 132.977 80.6293 139.751 83.144 146.078C85.6586 152.404 89.4388 158.151 94.2529 162.965C99.067 167.779 104.814 171.559 111.14 174.074C117.467 176.589 124.241 177.785 131.046 177.589C137.851 177.393 144.545 175.81 150.717 172.936C156.888 170.061 162.408 165.957 166.938 160.874L96.3438 90.2805Z" fill="white"/>
<path d="M133.016 106.531L118.5 145.906H113.359L99.0781 106.531H104.219L115.156 137.781C115.533 138.914 115.8 140.08 115.953 141.265H116.062C116.226 140.05 116.52 138.855 116.938 137.702L128.062 106.452L133.016 106.531Z" fill="white"/>
<path d="M138.688 145.906V106.531H149.891C152.8 106.375 155.67 107.261 157.984 109.031C158.952 109.812 159.727 110.807 160.247 111.937C160.768 113.067 161.02 114.302 160.984 115.546C161.015 117.635 160.362 119.676 159.125 121.359C157.877 123.035 156.124 124.267 154.125 124.874V124.984C156.543 125.179 158.808 126.245 160.5 127.984C162.135 129.786 162.994 132.161 162.891 134.593C162.942 136.143 162.642 137.684 162.015 139.101C161.387 140.519 160.447 141.777 159.266 142.781C156.708 144.914 153.453 146.027 150.125 145.906H138.688ZM143.375 110.687V123.406H148.062C150.197 123.506 152.297 122.841 153.984 121.531C154.716 120.894 155.291 120.098 155.668 119.204C156.044 118.31 156.211 117.342 156.156 116.374C156.156 112.551 153.641 110.64 148.609 110.64L143.375 110.687ZM143.375 127.546V141.718H149.625C151.871 141.848 154.09 141.166 155.875 139.796C156.62 139.143 157.208 138.331 157.594 137.419C157.981 136.507 158.157 135.52 158.109 134.531C158.109 129.885 154.943 127.562 148.609 127.562L143.375 127.546Z" fill="white"/>
</g>
<defs>
<filter id="filter0_d_307_1355" x="0.723999" y="0.623779" width="260" height="260" filterUnits="userSpaceOnUse" color-interpolation-filters="sRGB">
<feFlood flood-opacity="0" result="BackgroundImageFix"/>
<feColorMatrix in="SourceAlpha" type="matrix" values="0 0 0 0 0 0 0 0 0 0 0 0 0 0 0 0 0 0 127 0" result="hardAlpha"/>
<feOffset dy="4"/>
<feGaussianBlur stdDeviation="20"/>
<feComposite in2="hardAlpha" operator="out"/>
<feColorMatrix type="matrix" values="0 0 0 0 0.0367917 0 0 0 0 0.0348958 0 0 0 0 0.0484375 0 0 0 0.1 0"/>
<feBlend mode="normal" in2="BackgroundImageFix" result="effect1_dropShadow_307_1355"/>
<feBlend mode="normal" in="SourceGraphic" in2="effect1_dropShadow_307_1355" result="shape"/>
</filter>
<clipPath id="clip0_307_1355">
<rect width="100" height="100" fill="white" transform="translate(81 76.218)"/>
</clipPath>
</defs>
</svg>
