<svg width="261" height="261" viewBox="0 0 261 261" fill="none" xmlns="http://www.w3.org/2000/svg">
<g filter="url(#filter0_d_307_1341)">
<rect x="40.724" y="36.8418" width="180" height="180" rx="32" fill="#1D1F23"/>
<rect x="41.224" y="37.3418" width="179" height="179" rx="31.5" stroke="black"/>
</g>
<path fill-rule="evenodd" clip-rule="evenodd" d="M109.854 81.8281C107.153 81.8339 104.509 83.3711 103.15 85.7161L82.0038 122.548C80.6654 124.899 80.6654 127.973 82.0038 130.324L103.15 167.156C104.51 169.501 107.153 171.038 109.854 171.044H152.146C154.847 171.038 157.49 169.501 158.85 167.156L179.996 130.324C181.335 127.973 181.335 124.899 179.996 122.548L158.85 85.7161C157.49 83.3711 154.847 81.8334 152.146 81.8281H109.854ZM110.238 103.375C110.296 103.369 110.357 103.369 110.415 103.375H117.71C118.033 103.382 118.346 103.569 118.507 103.85L130.882 125.961C130.944 126.07 130.984 126.192 131 126.317C131.015 126.192 131.055 126.07 131.117 125.961L143.462 103.85C143.629 103.561 143.956 103.372 144.289 103.375H151.584C152.23 103.381 152.714 104.197 152.411 104.77L140.332 126.436L152.411 148.072C152.742 148.649 152.247 149.502 151.584 149.497H144.289C143.951 149.494 143.621 149.293 143.462 148.992L131.117 126.881C131.055 126.772 131.015 126.65 131 126.525C130.984 126.65 130.944 126.772 130.882 126.881L118.507 148.992C118.353 149.284 118.038 149.483 117.71 149.497H110.415C109.752 149.502 109.257 148.649 109.588 148.072L121.667 126.436L109.588 104.77C109.299 104.247 109.652 103.487 110.238 103.375Z" fill="#3498DB"/>
<defs>
<filter id="filter0_d_307_1341" x="0.723999" y="0.841797" width="260" height="260" filterUnits="userSpaceOnUse" color-interpolation-filters="sRGB">
<feFlood flood-opacity="0" result="BackgroundImageFix"/>
<feColorMatrix in="SourceAlpha" type="matrix" values="0 0 0 0 0 0 0 0 0 0 0 0 0 0 0 0 0 0 127 0" result="hardAlpha"/>
<feOffset dy="4"/>
<feGaussianBlur stdDeviation="20"/>
<feComposite in2="hardAlpha" operator="out"/>
<feColorMatrix type="matrix" values="0 0 0 0 0.0367917 0 0 0 0 0.0348958 0 0 0 0 0.0484375 0 0 0 0.1 0"/>
<feBlend mode="normal" in2="BackgroundImageFix" result="effect1_dropShadow_307_1341"/>
<feBlend mode="normal" in="SourceGraphic" in2="effect1_dropShadow_307_1341" result="shape"/>
</filter>
</defs>
</svg>
